STARTFONT 2.1
COMMENT
COMMENT Converted from OpenType font "Font 90 Icons.ttf" by "otf2bdf 3.0".
COMMENT
FONT -FreeType-Font 90 Icons-Medium-R-Normal--40-290-100-100-P-150-ISO10646-1
SIZE 29 100 100
FONTBOUNDINGBOX 43 42 0 -8
STARTPROPERTIES 19
FOUNDRY "FreeType"
FAMILY_NAME "Font 90 Icons"
WEIGHT_NAME "Medium"
SLANT "R"
SETWIDTH_NAME "Normal"
ADD_STYLE_NAME ""
PIXEL_SIZE 40
POINT_SIZE 290
RESOLUTION_X 100
RESOLUTION_Y 100
SPACING "P"
AVERAGE_WIDTH 150
CHARSET_REGISTRY "ISO10646"
CHARSET_ENCODING "1"
FONT_ASCENT 33
FONT_DESCENT 8
COPYRIGHT "Typeface © (el-harrak.blogspot.com). <darrati10@gmail.com>. All Rights Reserved"
_OTF_FONTFILE "Font 90 Icons.ttf"
_OTF_PSNAME "Font 90 Icons"
ENDPROPERTIES
CHARS 242
STARTCHAR 0000
ENCODING 0
SWIDTH 0 0
DWIDTH 0 0
BBX 0 0 0 0
BITMAP
ENDCHAR
STARTCHAR 001D
ENCODING 29
SWIDTH 0 0
DWIDTH 0 0
BBX 0 0 0 0
BITMAP
ENDCHAR
STARTCHAR 0020
ENCODING 32
SWIDTH 248 0
DWIDTH 10 0
BBX 0 0 0 0
BITMAP
ENDCHAR
STARTCHAR 0021
ENCODING 33
SWIDTH 968 0
DWIDTH 39 0
BBX 39 39 0 -7
BITMAP
0001FF0000
000FFFE000
003FFF3800
00FFFFCE00
01FFFFE300
03FFFFE180
07FFFFF0C0
0FFFFFF060
1FFFC7F030
1FFF83F810
3FFF83F818
3FFF83F008
7FFFC7F00C
7FFFFFF004
7FFFFFF004
7FFFFFE004
FFFFFFC006
FFFFFF8006
FFFFFE0006
FFFFC00006
FFFE000006
FFFC000006
7FF8000004
7FF0000004
7FE0000004
7FE000000C
3FE0380008
3FE07C0018
1FE07C0010
1FE07C0030
0FE0380020
07E0000040
03F0000080
01F0000300
00F8000600
007C001C00
001F007000
0007FFC000
0000100000
ENDCHAR
STARTCHAR 0022
ENCODING 34
SWIDTH 968 0
DWIDTH 39 0
BBX 39 31 0 -3
BITMAP
0003FF8000
0007FFC000
000600C000
000600C000
000600C000
3FFFFFFFF8
7FFFFFFFFC
7FFFFFFFFE
FFFFFFFFFE
FFFFFFFFFE
FFFFFFFFFE
FFFFFFFFFE
FFFFFFFFFE
FFFFFFFFFE
FFFFFFFFFE
FFFFFFFFFE
FFFFFFFFFE
FFFFFFFFFE
FFFFFFFFFE
FFFFFFFFFE
FFFFFFFFFE
FFFFFFFFFE
FFFFFFFFFE
FFFFFFFFFE
FFFFFFFFFE
FFFFFFFFFE
FFFFFFFFFE
FFFFFFFFFE
7FFFFFFFFC
7FFFFFFFFC
1FFFFFFFF0
ENDCHAR
STARTCHAR 0023
ENCODING 35
SWIDTH 968 0
DWIDTH 39 0
BBX 37 41 1 -8
BITMAP
001FC00000
007FF80000
F9FFFF0000
7BFFFFE040
7BFFFFFFC0
7BFFFFFFC0
79FFFFFFC0
79FFFFFFC0
3DFFFFFFE0
3DFFFFFFE0
3DFFFFFFE0
3DFFFFFFE0
3CFFFFFFE0
3EFFFFFFE0
1EFFFFFFE0
1EFFFFFFF0
1EFFFFFFF0
1E7FFFFFF0
1E7FFFFFF0
1F7C00FFF0
0F70003FF0
0F600007F8
0F000001F8
0F00000000
0F80000000
0780000000
0780000000
0780000000
0780000000
0780000000
07C0000000
03C0000000
03C0000000
03C0000000
03C0000000
03C0000000
03E0000000
01E0000000
01E0000000
01E0000000
00C0000000
ENDCHAR
STARTCHAR 0024
ENCODING 36
SWIDTH 968 0
DWIDTH 39 0
BBX 39 38 0 -6
BITMAP
0780000000
0FC0000000
1FE0000000
3FF0000000
7FF8000000
FFFC000000
FFFE000000
FFFF000000
7FFFC00000
7FFFE00000
3FFFD00000
1FFFB80000
0FFF7E0000
07FEFF0000
03FDFF0000
01FBFE0000
00F7FC0000
006FF80000
005FF00000
003FF80000
001FDC0000
000F8E0000
0007070000
0006018000
000000C000
0000006000
0000003000
0000001000
0000000800
0000000400
0000000200
0000000100
0000000080
0000000040
0000000020
0000000010
0000000008
0000000006
ENDCHAR
STARTCHAR 0025
ENCODING 37
SWIDTH 968 0
DWIDTH 39 0
BBX 37 41 1 -8
BITMAP
0000F80000
0000F80000
0001FC0000
0001FC0000
0007FF0000
001FFFC000
007FFFF000
00FFFFF800
11FFFFFCE0
7FFCF9FFF0
7FF0F87FF8
FFE0703FF8
FFC0701FF8
7FE0703FF0
3FF0607FE0
1FF860FFE0
3FFC71FFE0
3E7FFFE3E0
3E07FF03E0
3E01FC03E0
3E01FC03E0
3E03FE03E0
3E0FFF83E0
3EFFF3FBE0
3FFC71FFE0
1FF870FFE0
7FF0707FF0
7FE0703FF8
FFC0701FF8
FFE0F83FF8
7FF8F8FFF0
3FFEFBFFF0
01FFFFFC00
00FFFFF800
003FFFE000
000FFFC000
0001FE0000
0001FC0000
0001FC0000
0000F80000
0000700000
ENDCHAR
STARTCHAR 0026
ENCODING 38
SWIDTH 968 0
DWIDTH 39 0
BBX 39 38 0 -6
BITMAP
0001FF0000
000FFFE000
003F83F800
00F8003E00
01E0000F00
03C0FE0780
0707FFC1C0
0E0FFFE0E0
0C3FFFF860
1C7FFFFC70
38FFFFFE38
30FFFFFE18
71E7FFFF1C
71F3FFBF1C
63F9FF3F8C
63FCFE7F8C
E3FE7CFF8E
E7FF39FFCE
E7FF93FFCE
E7FFC7FFCE
E7FFC7FFCE
E7FFEFFFCE
63FFFFFF8C
63FFFFFF8C
63FFFFFF8C
71FFFFFF1C
31FFFFFF18
38FFFFFE38
187FFFFC30
1C3FFFF870
0E1FFFF0E0
070FFFE1C0
0381FF0380
01C0000700
00F0001E00
007E00FC00
001FFFF000
0007FF8000
ENDCHAR
STARTCHAR 0027
ENCODING 39
SWIDTH 968 0
DWIDTH 39 0
BBX 39 39 0 -7
BITMAP
001FF00000
007FFC0000
01FFFF0000
03FFFF8000
07FFFFC000
0FFFFFE000
1FF01FF000
3FC007F000
3F8383F800
7F0781F800
7E0781FC00
7E0780FC00
7C0780FC00
FC7FFCFC00
FCFFFC7C00
FCFFFC7C00
FC7FF8FC00
7E0780FC00
7E0780FC00
7E0781FC00
7F0781F800
3F8303F800
3FC007F800
1FF01FFC00
0FFFFFFE00
07FFFFFF00
03FFFFFF80
01FFFFFFC0
007FFFFFE0
000FE1FFF0
000000FFF8
0000007FFC
0000003FFC
0000001FFE
0000000FFE
00000007FC
00000003FC
00000001F8
00000000F0
ENDCHAR
STARTCHAR 0028
ENCODING 40
SWIDTH 968 0
DWIDTH 39 0
BBX 39 39 0 -7
BITMAP
003FF00000
00FFFE0000
01FFFF0000
07FFFF8000
0FFFFFC000
1FFEFFE000
1FE00FF000
3FC007F800
3F8003F800
7F0001F800
7E0000FC00
7E0000FC00
FC0000FC00
FCFFFC7C00
FCFFFC7C00
FCFFFC7C00
FC3FF8FC00
7E0000FC00
7E0000FC00
7E0001FC00
7F0001F800
3F8003F800
3FC00FF800
1FF03FFC00
0FFFFFFE00
07FFFFFF00
03FFFFFF80
01FFFFFFC0
007FFBFFE0
000FC1FFF0
000000FFF8
0000007FFC
0000003FFC
0000001FFE
0000000FFE
00000007FE
00000003FC
00000001F8
0000000060
ENDCHAR
STARTCHAR 0029
ENCODING 41
SWIDTH 968 0
DWIDTH 39 0
BBX 39 29 0 -2
BITMAP
7FFFFFFFFC
7FFFFFFFFE
F80000003E
FC0000007E
FE000000FE
EF000001EE
E7800003CE
E3C000078E
E1E0000F0E
E0F0001E0E
E078003C0E
E03C00780E
E01E00F00E
E00F01E00E
E00783E00E
E00FC7F00E
E01DEFF80E
E038FF3C0E
E0707C1E0E
E0E0000F0E
E1C000078E
E38000038E
E7000001CE
EE000000EE
FC0000007E
F80000003E
FFFFFFFFFE
7FFFFFFFFE
3FFFFFFFFC
ENDCHAR
STARTCHAR 002A
ENCODING 42
SWIDTH 968 0
DWIDTH 39 0
BBX 33 41 3 -8
BITMAP
0003E00000
0003E00000
0003E00000
0003E00000
0003E00000
0003E00000
0003E00000
0003E00000
0003E00000
0003E00000
0383E1C000
03E3E7E000
03FBFFC000
01FFFFC000
00FFFF8000
007FFF0000
7FBFFEFF00
7FDFFDFF00
BFEFFBFE80
DFF7F7FD80
EFFBEFFB80
F7FDDFF780
FBFE3FEF80
FDFFFFDF80
FEFFFFBF80
FF7FFF7F80
FFBFFEFF80
FFDFFDFF80
FFEFFBFF80
FFC7F1FF80
FFBBEEFF80
FF7C9F7F80
FEFF7FBF80
FDFFFFDF80
FFFFFFEF80
FFFFFFF780
FFFFFFFB80
FFFFFFFD80
FFFFFFFE80
7FFFFFFF00
7FFFFFFF00
ENDCHAR
STARTCHAR 002B
ENCODING 43
SWIDTH 968 0
DWIDTH 39 0
BBX 39 39 0 -7
BITMAP
FFFFFFFFFE
FFFFFFFFFE
FFFFFFFFFE
FFFFFFFFFE
FFFFFFFFFE
F807FFC03E
F80FFFE03E
F81FFFF03E
F80FFFE03E
F807FFC03E
F803FF803E
F903FF813E
FB87FFC3BE
FFCFFFE7FE
FFFFFFFFFE
FFFFFFFFFE
FFFFFFFFFE
FFFFFFFFFE
FFFFFFFFFE
FFFFFFFFFE
FFFFFFFFFE
FFFFFFFFFE
FFFFFFFFFE
FFFFFFFFFE
FFCFFFE7FE
FB87FFC3BE
F903FF813E
F803FF803E
F807FFC03E
F80FFFE03E
F81FFFF03E
F80FFFE03E
F807FFC03E
FFFFFFFFFE
FFFFFFFFFE
FFFFFFFFFE
FFFFFFFFFE
FFFFFFFFFE
FFFFFFFFFE
ENDCHAR
STARTCHAR 002C
ENCODING 44
SWIDTH 968 0
DWIDTH 39 0
BBX 39 38 0 -6
BITMAP
0000000380
000000FFC0
000007FFE0
00000FFFF0
00001FFFF8
00003FFFFC
00007FFCFE
0000FFF87E
0001FFF87C
0003FFFCFC
0007FFFFFC
000FFFFFFC
001FFFFFFC
003FFFFFFC
007FFFFFF8
00FFFFFFF8
01FFFFFFF8
03E7FFFFF0
07F3FFFFE0
0FF9FFFFC0
1F3CFFFF80
3F9E7FFF00
7FCF3FFE00
FFE79FFC00
7FF3CFF800
3FF9E7F000
1FFCF3E000
0FFE7BC000
07FF3F8000
03FF9F0000
01FFDE0000
00FFFC0000
007FF80000
003FF00000
001FE00000
000FC00000
0007800000
0003000000
ENDCHAR
STARTCHAR 002D
ENCODING 45
SWIDTH 968 0
DWIDTH 39 0
BBX 39 39 0 -7
BITMAP
0001FF0000
000FFFE000
003FFFF800
00FC007E00
01F0000F00
03C0000780
07800003C0
0F800041E0
0FC00060E0
1CE000E070
387001E038
383803E038
301C07E01C
700E0FE01C
600FFFE00C
600FFFE00C
E00FFFE00E
E00FFFE00E
E00FFFE00E
E00FFFE00E
E00FFFE00E
E00FFFE00E
600FFFE00C
600FFFE00C
70000FE01C
70000FE01C
300007E018
380003E838
1C0001EC70
1C0000E670
0E000063E0
07000001C0
0380000380
01E0000F00
00F8001E00
007E00FC00
001FFFF000
0007FFC000
0000100000
ENDCHAR
STARTCHAR 002E
ENCODING 46
SWIDTH 968 0
DWIDTH 39 0
BBX 33 41 3 -8
BITMAP
1FFFFFFF00
3800000700
3000000300
3000000300
3000000300
3000000300
3000000300
3000000300
3000000300
3000000300
3000000300
3000000300
3000000300
3000000300
3000000300
3000000300
3000000300
3000000300
3000000300
3FFFFFFF00
1FFFFFFE00
0000000000
0000000000
1FFFFFFF00
3FFFFFFF00
3FFFF80F00
3FFFF80F00
3FFFFFFF00
3FFFFFFF00
3FFFFFFF00
1FFFFFFE00
0000C00000
0000C00000
0000C00000
0000C00000
0000C00000
001FFE0000
001FFE0000
FFFFFFFF80
FFFFFFFF80
001FFE0000
ENDCHAR
STARTCHAR 002F
ENCODING 47
SWIDTH 968 0
DWIDTH 39 0
BBX 39 40 0 -7
BITMAP
0000100000
0C00FE0060
0E03FF80E0
0603FF80C0
0707FFC1C0
0707FFC1C0
638FFFE38C
E38FFFE38E
638FFFE38C
738FFFE39C
71CFFFE71C
71CFFFE71C
31CFFFE718
39CFFFE738
39CFFFE738
39CFFFE738
39CFFFE738
39CFFFE738
39CFFFE738
39CFFFE738
39CFFFE738
71CFFFE71C
71CFFFE71C
71CFFFE71C
738FFFE39C
6387FFE38C
E387FFC38E
C307FFC1C6
0703FF81C0
0701FF00C0
0E00FE00E0
0E00FE0060
0400FE0040
0000FE0000
0000FE0000
0000FE0000
0000FE0000
0000FE0000
0000FE0000
00007C0000
ENDCHAR
STARTCHAR 0030
ENCODING 48
SWIDTH 968 0
DWIDTH 39 0
BBX 39 39 0 -7
BITMAP
0001FF0000
000FFFE000
003FFFF800
00FFFFFE00
01FFFFFF00
03FFFFFF80
07FFFFFFC0
0FE7FFCFE0
0F87FFC3E0
1F03FF81F0
3F03FF81F8
3E01FF00F8
7C00FE007C
7C00FE007C
7C007C007C
7800FE003C
F801FF003E
F80183003E
F80383803E
FFFF83FFFE
FFFF83FFFE
FFFFC7FFFE
7FFFFFFFFC
7FFFFFFFFC
7FFF03FFFC
7FFF01FFFC
3FFE00FFF8
3FFE00FFF8
1FFC007FF0
1FFC007FF0
0FF8003FE0
07F0003FC0
07F8003FC0
01FE01FF80
00FFFFFE00
007FFFFC00
001FFFF000
0007FFC000
0000100000
ENDCHAR
STARTCHAR 0031
ENCODING 49
SWIDTH 968 0
DWIDTH 39 0
BBX 37 41 1 -8
BITMAP
0001FC0000
0003FE0000
0003FE0000
0003FE0000
0003FE0000
0033FE6000
00F3FE7800
01F3FE7C00
03F3FE7E00
07F3FE7F00
0FF3FE7F80
1FE3FE3FC0
3FC3FE1FE0
3F83FE0FE0
7F03FE07F0
7E03FE03F0
7E03FE03F0
FC03FE01F8
FC03FE01F8
FC03FE01F8
F803FE00F8
F803FE00F8
F801FC00F8
F8000000F8
FC000001F8
FC000001F8
FC000001F8
7C000003F0
7E000003F0
7F000007F0
3F000007E0
3F80000FE0
1FC0001FC0
0FF0007F80
0FFC01FF80
07FFFFFF00
03FFFFFC00
00FFFFF800
007FFFF000
001FFF8000
0001FC0000
ENDCHAR
STARTCHAR 0032
ENCODING 50
SWIDTH 968 0
DWIDTH 39 0
BBX 37 41 1 -8
BITMAP
0000F80000
0001F80000
0001FC0000
0001FC0000
0001FC0000
0001FC0000
0001F80000
0000F80000
1000F800E0
7E00F803F0
FF00F007F8
FF80700FF8
FFC0701FF8
7FE0703FF0
3FF0607FE0
1FF860FF80
03FC71FE00
007FFFE000
0007FF0000
0001FC0000
0001FC0000
0003FE0000
000FFF8000
00FFF3F800
07FC71FF00
1FF870FFE0
7FF0707FF0
7FE0703FF8
FFC0701FF8
FF00F80FF8
7E00F803F0
7C00F801F0
0000F80000
0001F80000
0001FC0000
0001FC0000
0001FC0000
0001FC0000
0001FC0000
0000F80000
0000700000
ENDCHAR
STARTCHAR 0033
ENCODING 51
SWIDTH 968 0
DWIDTH 39 0
BBX 39 36 0 -5
BITMAP
0000100000
0000100000
0000380000
0000380000
00007C0000
00007C0000
0000FE0000
0000FE0000
0001FF0000
0001FF0000
0003FF8000
0003FF8000
003FFFF800
1FFFFFFFE0
FFFFFFFFFE
3FFFFFFFF8
1FFFFFFFF0
0FFFFFFFE0
07FFFFFFC0
03FFFFFF80
01FFFFFF00
00FFFFFE00
007FFFFC00
003FFFF800
003FFFF800
003FFFF800
007FFFFC00
007FFFFC00
007FFFFC00
007FFFFC00
007FEFFC00
007F83FE00
00FE00FE00
00F8003E00
00E0000E00
00C0000600
ENDCHAR
STARTCHAR 0034
ENCODING 52
SWIDTH 968 0
DWIDTH 39 0
BBX 39 28 0 -1
BITMAP
3FFFFFFFF8
3FFFFFFFF8
1FFFFFFFF0
CFFFFFFFE6
E7FFFFFFDE
F3FFFFFFBE
F9FFFFFF7E
FCFFFFFEFE
FF7FFFFDFE
FFBFFFFBFE
FFDFFFF7FE
FFEFFFEFFE
FFF7FFDFFE
FFFBFFBFFE
FFF9FF3FFE
FFF0FE1FFE
FFE67CCFFE
FFCF39E7FE
FF9FC7F3FE
FF3FFFFBFE
FE7FFFFDFE
FEFFFFFEFE
FDFFFFFF7E
FBFFFFFFBE
F7FFFFFFDE
EFFFFFFFEE
1FFFFFFFF0
3FFFFFFFF8
ENDCHAR
STARTCHAR 0035
ENCODING 53
SWIDTH 968 0
DWIDTH 39 0
BBX 39 30 0 -3
BITMAP
0000100000
00007C7E00
0000EE7E00
0003837E00
000739FE00
001C7C7E00
0039FE3E00
0063FF8E00
01CFFFC700
031FFFF380
0E3FFFF8E0
1CFFFFFE70
71FFFFFF1C
E3FFFFFF8E
03FFFFFF80
03FFFFFF80
03FFFFFF80
03FF01FF80
03FF01FF80
03FF01FF80
03FF01FF80
03FF01FF80
03FF01FF80
03FF01FF80
03FF01FF80
03FF01FF80
03FF01FF80
03FF01FF80
03FF01FF80
03FF01FF00
ENDCHAR
STARTCHAR 0036
ENCODING 54
SWIDTH 968 0
DWIDTH 39 0
BBX 39 41 0 -8
BITMAP
0180000E00
03E0003F00
07E0003F80
07F0003F80
07E0003F00
03E0001F00
0180000E00
0000003F00
3FFC00FFC0
7FFE01FFE0
7FFF01FFF0
FFFF03FFF0
FFFF03BFF0
EFFF03FFB8
EFFF03FFB8
EFFF077FF8
EFFF077FDC
EFFF07FFDC
EFFF0EFFDC
EFFF0EFFFC
EFFF0FFFEE
EFFF0DFFEC
EFFF01FFF0
4FFA01FFF0
0F7803FFF0
0F7803FFF0
0F7803FFF8
0F7807FFF8
0F78003B80
0F78003B80
0F78003B80
0F78003B80
0F78003B80
0F78003B80
0F78003B80
0F78003B80
0F78003B80
0F78003B80
0F78003B80
0F70003B80
0000001100
ENDCHAR
STARTCHAR 0037
ENCODING 55
SWIDTH 968 0
DWIDTH 39 0
BBX 39 29 0 -2
BITMAP
003FF00000
00FFFC0000
03F83F0000
07F01F8000
0FE01FC000
1FE01FE000
1FE01FF000
3FE01FF000
7FF03FF800
7FF87FF800
787FF83800
703FF01C00
E01FE01C00
E01FE01C00
E01FE01C00
E01FE01C00
F03FF01C00
787FF83800
7FF87FF800
7FF03FF800
3FE01FF000
3FE01FF000
1FE01FE000
0FE01FE000
0FF01FF01E
03F03FF07E
01FFFE3FF8
007FFC1FE0
001FE00400
ENDCHAR
STARTCHAR 0038
ENCODING 56
SWIDTH 968 0
DWIDTH 39 0
BBX 30 41 5 -8
BITMAP
FFFFFFF8
FFFFFFFC
FFFFFFFC
E000003C
C000001C
C000001C
C000001C
C000001C
C000001C
C000001C
E000003C
FFFFFFFC
FFFFFFFC
FFFFFFFC
E0F0783C
E0F0783C
E0F0783C
E0F0783C
E0F0783C
FFFFFFFC
FFFFFFFC
FFFFFFFC
FFFFFFFC
E0F0783C
E0F0783C
E0F0783C
E0F0783C
E0F0783C
FFFFFFFC
FFFFFFFC
FFFFFFFC
FFFFFFFC
E0F0783C
E0F0783C
E0F0783C
E0F0783C
E0F0783C
FFFFFFFC
FFFFFFFC
FFFFFFF8
7FFFFFF0
ENDCHAR
STARTCHAR 0039
ENCODING 57
SWIDTH 968 0
DWIDTH 39 0
BBX 39 37 0 -6
BITMAP
E000000000
F000000000
7800000000
3C00000000
1E00000000
0F1FFFFFFE
071FFFFFFC
070FFFFFFC
038FFFFFF8
038FFFFFF8
01CFFFFFF0
01CFFFFFF0
01CFFFFFE0
01C7FFFFE0
00E7FFFFC0
00E7FFFFC0
00E7FFFF80
00E7FFFF80
0067FFFF00
0070000000
0070000000
0070000000
0070000000
0070000000
007FFFFFF0
007FFFFFF0
003FFFFFE0
0000000000
0000000000
003C0007C0
007E000FE0
00FF000FE0
00FF000FF0
00FF000FF0
00FF000FE0
007E0007E0
0018000380
ENDCHAR
STARTCHAR 003A
ENCODING 58
SWIDTH 968 0
DWIDTH 39 0
BBX 39 39 0 -7
BITMAP
0000007C00
000003FF80
000007FFC0
00000FFFE0
00001FFFF0
00003FF878
00007FF03C
00007FF03C
00007FF03C
0000FFF07E
0000FFF87E
0000FFFFFE
0000FFFFFE
00007FFFFC
00007FFFFC
00007FFFFC
00013FFFF8
00033FFFF8
00079FFFF0
000FCFFFE0
001FC7FFC0
003FF1FF00
007FF80000
00FFFE0000
01FFE00000
03FFE00000
07FFE00000
0FFF000000
1FFF000000
3FE0000000
7FE0000000
7FE0000000
FFE0000000
FFE0000000
FF00000000
7F00000000
7F00000000
3F00000000
0E00000000
ENDCHAR
STARTCHAR 003B
ENCODING 59
SWIDTH 968 0
DWIDTH 39 0
BBX 39 39 0 -7
BITMAP
0000380000
0000380000
0000380000
0000380000
0000380000
0000380000
0000380000
0000380000
0000380000
0000380000
0000380000
0000380000
0000380000
0000380000
0000380000
0000380000
0000380000
0000380000
FFFFFFFFFE
FFFFFFFFFE
FFFFFFFFFE
0000380000
0000380000
0000380000
0000380000
0000380000
0000380000
0000380000
0000380000
0000380000
0000380000
0000380000
0000380000
0000380000
0000380000
0000380000
0000380000
0000380000
0000380000
ENDCHAR
STARTCHAR 003C
ENCODING 60
SWIDTH 968 0
DWIDTH 39 0
BBX 39 31 0 -3
BITMAP
0000380000
0000380000
00007C0000
00007E0000
0000FE0000
0001EF0000
0001EF0000
0003C78000
0003C7C000
000783C000
000F01E000
000F01E000
001E00F000
001E00F000
003C007800
0078003C00
0078003C00
00F0001E00
00F0001E00
01E0000F00
03E0000780
03C0000780
07800003C0
07800003C0
0F000001E0
1F000000F0
1E000000F0
3C00000078
3C00000078
780000003C
F80000001E
ENDCHAR
STARTCHAR 003D
ENCODING 61
SWIDTH 968 0
DWIDTH 39 0
BBX 39 38 0 -6
BITMAP
0001FE0000
000FFFE000
003C007800
00F0001E00
01C0000700
0380000380
06000000C0
0C7FF00060
0C7FFF0060
181E07C030
301E03C018
301E03E018
601E01E008
601E01E00C
601E01E00C
401E01E004
C01E03C006
C01E07C006
C01E3F0006
C01FF80006
C01E3C0006
C01E3E0006
401E1E0004
401E0F000C
601E07800C
601E07C00C
301E03C018
301E01E018
181E00F030
181F00F830
0C7FE07C60
06000000C0
0700000180
0380000300
00E0000E00
0078003C00
001F01F000
0007FFC000
ENDCHAR
STARTCHAR 003E
ENCODING 62
SWIDTH 968 0
DWIDTH 39 0
BBX 39 38 0 -6
BITMAP
0000FF0000
000FFFE000
003C007800
00F0001E00
01C0000700
0380000380
06000000C0
0C00FF0860
0C03C1F860
180F007830
301C003818
3038001818
6078000808
607000080C
60F0000C0C
40F0000004
C1F0000006
C1F0000006
C1F0000006
C1F0000006
C1F0000006
C1F0000006
41F0000004
40F0000004
60F000000C
607800040C
307C000C18
303C001818
181F003030
1807C1C030
0C03FF8060
06000000C0
07000001C0
0380000300
00E0000E00
0078003C00
001F01F000
0007FF8000
ENDCHAR
STARTCHAR 003F
ENCODING 63
SWIDTH 968 0
DWIDTH 39 0
BBX 39 39 0 -7
BITMAP
0000FE0000
000FFFE000
003FFFF800
007FFFFC00
01FFEFFF00
03FC007F80
07F0001FC0
0FC00007E0
0F800003E0
1F000001F0
3E000000F8
3E000000F8
3C00000078
7C0000007C
780000003C
780000003C
780000003C
F80000003E
F80000003E
F80000003E
F80000003E
F80000003E
780000003C
780000003C
780000003C
7C0000007C
3C00000078
3E000000F8
1F000001F0
1F800003F0
0FC00007E0
07E0000FC0
03F0001F80
01FE00FF00
00FFFFFE00
007FFFFC00
001FFFF000
0007FFC000
0000100000
ENDCHAR
STARTCHAR 0040
ENCODING 64
SWIDTH 968 0
DWIDTH 39 0
BBX 39 38 0 -6
BITMAP
0000100000
0000100000
0000380000
0000380000
00007C0000
00007C0000
0000FE0000
0000FE0000
0001FF0000
0001FF0000
0003FF8000
0003FF8000
0007FFC000
0007FFC000
000FFFE000
000FFFE000
001FFFF000
001FFFF000
003FFFF800
003FFFF800
007FFFFC00
007FFFFC00
00FFFFFE00
00FFFFFE00
01FFFFFF00
01FFFFFF00
03FFFFFF80
03FFFFFF80
07FFFFFFC0
07FFFFFFC0
0FFFFFFFE0
0FFFFFFFE0
1FFFFFFFF0
1FFFFFFFF0
3FFFFFFFF8
3FFFFFFFF8
7FFFFFFFFC
FFFFFFFFFE
ENDCHAR
STARTCHAR 0041
ENCODING 65
SWIDTH 968 0
DWIDTH 39 0
BBX 39 37 0 -6
BITMAP
8002000000
E003000000
F003C00000
F803E00000
FE03F00000
FF03FC0000
FF83FE0000
FFE3FF0000
FFF3FFC000
FFF9FFE000
FFFEFFF000
FFFF3FFC00
FFFF9FFE00
FFFFEFFF00
FFFFF3FFC0
FFFFF9FFE0
FFFFFEFFF0
FFFFFF3FFC
FFFFFFBFFE
FFFFFE7FF8
FFFFFCFFF0
FFFFFBFFC0
FFFFE7FF80
FFFFCFFF00
FFFFBFFC00
FFFE7FF800
FFFCFFF000
FFFBFFC000
FFE3FF8000
FFC3FF0000
FF83FC0000
FE03F80000
FC03F00000
F803C00000
E003800000
C003000000
8002000000
ENDCHAR
STARTCHAR 0042
ENCODING 66
SWIDTH 968 0
DWIDTH 39 0
BBX 33 41 3 -8
BITMAP
8000007F80
E000007F80
F000007F80
FC00007F80
FE00007F80
FF80007F80
FFE0007F80
FFF0007F80
FFFC007F80
FFFF007F80
FFFF807F80
FFFFE07F80
FFFFF87F80
FFFFFC7F80
FFFFFF7F80
FFFFFFFF80
FFFFFFFF80
FFFFFFFF80
FFFFFFFF80
FFFFFFFF80
FFFFFFFF80
FFFFFFFF80
FFFFFFFF80
FFFFFFFF80
FFFFFFFF80
FFFFFFFF80
FFFFFE7F80
FFFFFC7F80
FFFFF07F80
FFFFC07F80
FFFF807F80
FFFE007F80
FFF8007F80
FFF0007F80
FFC0007F80
FF00007F80
FE00007F80
F800007F80
F000007F80
C000007F80
8000007F80
ENDCHAR
STARTCHAR 0043
ENCODING 67
SWIDTH 968 0
DWIDTH 39 0
BBX 29 41 5 -8
BITMAP
FFF07FF8
FFF07FF8
FFF07FF8
FFF07FF8
FFF07FF8
FFF07FF8
FFF07FF8
FFF07FF8
FFF07FF8
FFF07FF8
FFF07FF8
FFF07FF8
FFF07FF8
FFF07FF8
FFF07FF8
FFF07FF8
FFF07FF8
FFF07FF8
FFF07FF8
FFF07FF8
FFF07FF8
FFF07FF8
FFF07FF8
FFF07FF8
FFF07FF8
FFF07FF8
FFF07FF8
FFF07FF8
FFF07FF8
FFF07FF8
FFF07FF8
FFF07FF8
FFF07FF8
FFF07FF8
FFF07FF8
FFF07FF8
FFF07FF8
FFF07FF8
FFF07FF8
FFF07FF8
FFF07FF8
ENDCHAR
STARTCHAR 0044
ENCODING 68
SWIDTH 968 0
DWIDTH 39 0
BBX 33 41 3 -8
BITMAP
8000000000
C000000000
F000000000
FC00000000
FE00000000
FF80000000
FFE0000000
FFF0000000
FFFC000000
FFFE000000
FFFF800000
FFFFE00000
FFFFF00000
FFFFFC0000
FFFFFF0000
FFFFFF8000
FFFFFFE000
FFFFFFF800
FFFFFFFC00
FFFFFFFF00
FFFFFFFF80
FFFFFFFE00
FFFFFFFC00
FFFFFFF000
FFFFFFC000
FFFFFF8000
FFFFFE0000
FFFFFC0000
FFFFF00000
FFFFC00000
FFFF800000
FFFE000000
FFF8000000
FFF0000000
FFC0000000
FF00000000
FE00000000
F800000000
E000000000
C000000000
8000000000
ENDCHAR
STARTCHAR 0045
ENCODING 69
SWIDTH 968 0
DWIDTH 39 0
BBX 39 38 0 -6
BITMAP
0000FE0000
000FFFE000
003FFFF800
007FFFFC00
01FFFFFF00
03FFFFFF80
07FFFFFFC0
0FFFFFFFE0
0FFFFFFFE0
1FFFFFFFF0
3FFFFFFFF8
3FFF01FFF8
3FFC007FF8
7FF8003FFC
7FF8001FFC
7FF0001FFC
7FF0000FFC
FFE0000FFE
FFE0000FFE
FFE0000FFE
FFE0000FFE
FFE0000FFE
7FF0001FFC
7FF0001FFC
7FF8003FFC
7FFC007FFC
3FFE00FFF8
3FFF83FFF8
1FFFFFFFF0
1FFFFFFFF0
0FFFFFFFE0
07FFFFFFC0
03FFFFFF80
01FFFFFF00
00FFFFFE00
007FFFFC00
001FFFF000
0003FFC000
ENDCHAR
STARTCHAR 0046
ENCODING 70
SWIDTH 968 0
DWIDTH 39 0
BBX 38 38 1 -6
BITMAP
FFFFFFFFFC
FFFFFFFFFC
FFFFFFFFFC
FFFFFFFFFC
FFFFFFFFFC
FFFFFFFFFC
FFFFFFFFFC
FFFFFFFFFC
FFFFFFFFFC
FFFFFFFFFC
FFFFFFFFFC
FFFFFFFFFC
FFFFFFFFFC
FFFFFFFFFC
FFFFFFFFFC
FFFFFFFFFC
FFFFFFFFFC
FFFFFFFFFC
FFFFFFFFFC
FFFFFFFFFC
FFFFFFFFFC
FFFFFFFFFC
FFFFFFFFFC
FFFFFFFFFC
FFFFFFFFFC
FFFFFFFFFC
FFFFFFFFFC
FFFFFFFFFC
FFFFFFFFFC
FFFFFFFFFC
FFFFFFFFFC
FFFFFFFFFC
FFFFFFFFFC
FFFFFFFFFC
FFFFFFFFFC
FFFFFFFFFC
FFFFFFFFFC
FFFFFFFFFC
ENDCHAR
STARTCHAR 0047
ENCODING 71
SWIDTH 968 0
DWIDTH 39 0
BBX 33 41 3 -8
BITMAP
FF00000080
FF00000180
FF00000780
FF00001F80
FF00003F80
FF0000FF80
FF0003FF80
FF0007FF80
FF001FFF80
FF007FFF80
FF00FFFF80
FF03FFFF80
FF07FFFF80
FF1FFFFF80
FF7FFFFF80
FFFFFFFF80
FFFFFFFF80
FFFFFFFF80
FFFFFFFF80
FFFFFFFF80
FFFFFFFF80
FFFFFFFF80
FFFFFFFF80
FFFFFFFF80
FFFFFFFF80
FFFFFFFF80
FF3FFFFF80
FF0FFFFF80
FF07FFFF80
FF01FFFF80
FF00FFFF80
FF003FFF80
FF000FFF80
FF0007FF80
FF0001FF80
FF00007F80
FF00003F80
FF00000F80
FF00000380
FF00000180
FF00000080
ENDCHAR
STARTCHAR 0048
ENCODING 72
SWIDTH 968 0
DWIDTH 39 0
BBX 39 37 0 -6
BITMAP
0000008002
000001800E
000007801E
00000F803E
00001F80FE
00007F81FE
0000FF83FE
0001FF8FFE
0007FF9FFE
000FFF3FFE
001FFEFFFE
007FF9FFFE
00FFF3FFFE
01FFEFFFFE
07FF9FFFFE
0FFF3FFFFE
1FFEFFFFFE
7FF9FFFFFE
FFFBFFFFFE
3FFCFFFFFE
1FFE7FFFFE
07FFBFFFFE
03FFCFFFFE
01FFE7FFFE
007FFBFFFE
003FFCFFFE
001FFE7FFE
0007FFBFFE
0003FF8FFE
0001FF87FE
00007F83FE
00003F80FE
00001F807E
000007803E
000003800E
0000018006
0000008002
ENDCHAR
STARTCHAR 0049
ENCODING 73
SWIDTH 968 0
DWIDTH 39 0
BBX 39 38 0 -6
BITMAP
F100000000
F1C0000000
F1E0000000
F1F0000000
F1F0000000
F1F0800000
F1F0C00000
F1F0E00000
F1F0F80000
F1F0FE0000
F1F0FF0000
F1F0FFC000
F1F0FFF000
F1F0FFF800
F1F0FFFE00
F1F0FFFF80
F1F0FFFFC0
F1F0FFFFF0
F1F0FFFFF8
F1F0FFFFFE
F1F0FFFFF8
F1F0FFFFE0
F1F0FFFF80
F1F0FFFF00
F1F0FFFC00
F1F0FFF800
F1F0FFE000
F1F0FF8000
F1F0FF0000
F1F0FC0000
F1F0F00000
F1F0E00000
F1F0800000
F1F0000000
F1F0000000
F1F0000000
F1E0000000
F180000000
ENDCHAR
STARTCHAR 004A
ENCODING 74
SWIDTH 968 0
DWIDTH 39 0
BBX 39 38 0 -6
BITMAP
0000100000
0000100000
0000380000
00007C0000
0000FE0000
0000FE0000
0001FF0000
0003FF8000
0007FFC000
0007FFC000
000FFFE000
001FFFF000
003FFFF800
003FFFF800
007FFFFC00
00FFFFFE00
01FFFFFF00
01FFFFFF00
03FFFFFF80
07FFFFFFC0
0FFFFFFFE0
0FFFFFFFE0
1FFFFFFFF0
3FFFFFFFF8
7FFFFFFFFC
FFFFFFFFFE
0000000000
0000000000
0000000000
FFFFFFFFFE
FFFFFFFFFE
FFFFFFFFFE
FFFFFFFFFE
FFFFFFFFFE
FFFFFFFFFE
FFFFFFFFFE
FFFFFFFFFE
FFFFFFFFFE
ENDCHAR
STARTCHAR 004B
ENCODING 75
SWIDTH 968 0
DWIDTH 39 0
BBX 39 39 0 -7
BITMAP
00000001C0
00000003E0
00000007E0
00000007C0
0000000FC0
0000000F80
0000001F80
0000001F00
0000003F00
0000007E00
0000007E00
000000FC00
1FFFFFFC00
3FFFFFF800
3FFFFFF800
7FFFFFFC00
FFFFFFFC00
03FFFFFE00
001FFFFE00
0000FFFF00
00001FFF00
00003FFF80
00003EFFC0
00007E7FC0
0000FC3FE0
0000F83FE0
0001F81FF0
0001F00FF0
0003E007F8
007FE003FC
00FFC001FC
01FFC000FE
00FFE000FC
0007E00078
0001F00038
0001F00010
0000E00000
0000600000
0000200000
ENDCHAR
STARTCHAR 004C
ENCODING 76
SWIDTH 968 0
DWIDTH 39 0
BBX 33 41 3 -8
BITMAP
0000002000
0000002000
0000006000
0000007000
001FE0F000
00FFFFF800
03FFFFF800
07FFFFF800
0FFFFFFC00
1FFFFFFC00
3E007FFE00
30001FFE00
40001FFE00
80003FFF00
00003FFF00
00007FFF80
00007FFC00
0000FC0000
0001000000
0000000000
0000000000
0000000000
0000C00000
00FF800000
FFFF000000
FFFF000000
7FFE000000
7FFC000080
3FFC000300
3FFC000E00
1FFF807C00
1FFFFFFC00
1FFFFFF800
0FFFFFF000
0FFFFFC000
07BFFF0000
0780600000
0700000000
0300000000
0200000000
0200000000
ENDCHAR
STARTCHAR 004D
ENCODING 77
SWIDTH 968 0
DWIDTH 39 0
BBX 39 33 0 -4
BITMAP
000FF80000
007FFF0000
00FFFFC000
03FFFFE000
07FFFFF000
0FF807F800
1FE001FC00
1F8000FE00
3F00007E00
3E00003F00
7E00001F00
7C00001F00
7C00001F80
780003FFFE
F80001FFF8
F80000FFF8
F800007FF0
F800003FE0
F800001FC0
7C00001F80
7C00000F00
7C00000700
3E00000200
3F00000000
1F80000000
1FC0010000
0FF0030000
07FE1F8000
03FFFF8000
01FFFFC000
007FFF8000
001FFE0000
0000E00000
ENDCHAR
STARTCHAR 004E
ENCODING 78
SWIDTH 968 0
DWIDTH 39 0
BBX 39 28 0 -1
BITMAP
0000000060
00000000F0
00000001F8
00000003FC
00000007FE
0000000FFE
0000001FFC
0000003FF8
0C00007FF0
1E0000FFE0
3F0001FFC0
7F8003FF80
FFC007FF00
FFE00FFE00
7FF01FFC00
3FF83FF800
1FFC7FF000
0FFEFFE000
07FFFFC000
03FFFF8000
01FFFF0000
00FFFE0000
007FFC0000
003FF80000
001FF00000
000FE00000
0007C00000
0003800000
ENDCHAR
STARTCHAR 004F
ENCODING 79
SWIDTH 968 0
DWIDTH 39 0
BBX 39 38 0 -6
BITMAP
1F80000000
7FFC000000
7FFF000000
FFFFE00000
FFFFF80000
7FFFFC0000
3FFFFF0000
01FFFF8000
000FFFE000
0001FFF000
00007FF800
0C001FFC00
7FE00FFC00
7FFC07FE00
FFFF01FF00
FFFF80FF80
7FFFE0FF80
7FFFF07FC0
1FFFF83FE0
007FFC1FE0
000FFE1FF0
0007FE0FF0
0001FF07F0
0000FF87F8
00007F87F8
00007F83F8
1FC03FC3FC
3FE01FC3FC
7FF01FE1FC
7FF81FE1FC
7FF80FE1FC
FFF80FE1FC
FFF80FE1FE
7FF80FE1FE
7FF80FE1FE
7FF00FE0FE
3FE007E0FC
1FC007C07C
ENDCHAR
STARTCHAR 0050
ENCODING 80
SWIDTH 968 0
DWIDTH 39 0
BBX 37 41 1 -8
BITMAP
0003FC0000
000FFF8000
003FFFE000
007FFFF000
00FFFFF800
01FFFFFC00
03FE03FE00
03F800FE00
07F0007F00
07E0003F00
0FE0003F80
0FC0001F80
0FC0001F80
0FC0001F80
0FC0001F80
0FC0001F80
0FC0001F80
0FC0001F80
FFFFFFFFF8
FFFFFFFFF8
FFFFFFFFF8
FFFFFFFFF8
FFFFFFFFF8
FFFF9FFFF8
FFFF07FFF8
FFFF07FFF8
FFFF07FFF8
FFFF07FFF8
FFFF8FFFF8
FFFF8FFFF8
FFFF8FFFF8
FFFF8FFFF8
FFFF8FFFF8
FFFF8FFFF8
FFFF8FFFF8
FFFFFFFFF8
FFFFFFFFF8
FFFFFFFFF8
FFFFFFFFF8
FFFFFFFFF8
FFFFFFFFF8
ENDCHAR
STARTCHAR 0051
ENCODING 81
SWIDTH 968 0
DWIDTH 39 0
BBX 39 38 0 -6
BITMAP
00FFFFFE00
00FFFFFE00
00FFFFFE00
00FFFFFE00
00FFFFFE00
00FFFFFE00
00FFFFFE00
00FFFFFE00
00FFFFFE00
00FFFFFE00
00FFFFFE00
00FFFFFE00
00FFFFFE00
00FFFFFE00
0000180000
0000180000
0000180000
0000180000
0000180000
0000180000
00FFFFFF00
00FFFFFF00
0080000300
0080000300
0080000300
FFFF83FFFE
FFFF83FFFE
FFFF83FFFE
FFFF83FFFE
FFFF83FFFE
FFFF83FFFE
FFFF83FFFE
FFFF83FFFE
FFFF83FFFE
FFFF83FFFE
FFFF83FFFE
FFFF83FFFE
FFFF83FFFE
ENDCHAR
STARTCHAR 0052
ENCODING 82
SWIDTH 968 0
DWIDTH 39 0
BBX 39 23 0 1
BITMAP
0001800000
0001C00000
0001F00000
0000F80000
03FFFC7F80
07FFFF7FE0
1FFFFF7FF0
3FFFFE7FF8
3FFFFC7FF8
7E01F800FC
7C01E0007C
7C01C0003E
F80180003E
F80000003E
F80000003E
7C0000007C
7C0000007C
7F000001FC
3FFFFFFFF8
1FFFFFFFF0
0FFFFFFFE0
07FFFFFFC0
00FFFFFF00
ENDCHAR
STARTCHAR 0053
ENCODING 83
SWIDTH 968 0
DWIDTH 39 0
BBX 39 32 0 -3
BITMAP
0000006000
000000F800
000001FC00
000003FE00
000007FF00
00000FFF80
7FFF9FFFC0
FFFFBFFFE0
FFFF7FFFF0
FFFEFFFFF8
FFFDFFFFFC
FFFDFEFFFC
FFFFF8FCFC
FC01E0FC3C
FCFC1EFDC0
FDFFFEFDFE
F9FFFEFDFC
FBFFFEFDFC
FBFFFEFDFC
F3FFFEFDFC
F3FFFEFDF8
F7FFFEFDF8
F7FFFEFDF8
E7FFFEFDF0
EFFFFEFDF0
EFFFFEFBF0
CFFFFF07F0
CFFFFFFFE0
DFFFFFFFE0
5FFFFFFFE0
1FFFFFFFE0
1FFFFFFFC0
ENDCHAR
STARTCHAR 0054
ENCODING 84
SWIDTH 968 0
DWIDTH 39 0
BBX 39 38 0 -6
BITMAP
0001FE0000
000FFFE000
003FFFF800
00FFFFFC00
01FFFFFF00
03FFFFFF80
07FE00FFC0
0FF8003FE0
0FE0001FE0
1FF00007F0
3FF80003F8
3F7C0003F8
7F3E0001F8
7E1F0000FC
7E0F8000FC
7E07C000FC
FC03E0007C
FC01F0007E
FC00F8007E
FC007C007E
FC003E007E
FC001F007C
7C000F807C
7E0007C0FC
7E0003E0FC
7E0001F1FC
3F0000F9F8
3F80007FF8
1FC0003FF0
1FE0001FF0
0FF0001FE0
07FC007FC0
03FF83FF80
01FFFFFF00
00FFFFFE00
007FFFFC00
001FFFF000
0007FFC000
ENDCHAR
STARTCHAR 0055
ENCODING 85
SWIDTH 968 0
DWIDTH 39 0
BBX 39 34 0 -4
BITMAP
0000180000
0000380000
0000780000
0000780000
0000F80000
0001F80000
0003F80000
0007F80000
000FF80000
001FF80000
7FFFF80000
FFFFF80000
FFFFF80000
FFFFF80000
FFFFF80000
FFFFF87FFE
FFFFF87FFE
FFFFF87FFE
FFFFF87FFE
FFFFF80000
FFFFF80000
FFFFF80000
FFFFF80000
FFFFF80000
001FF80000
000FF80000
000FF80000
0007F80000
0003F80000
0001F80000
0000F80000
0000780000
0000380000
0000180000
ENDCHAR
STARTCHAR 0056
ENCODING 86
SWIDTH 968 0
DWIDTH 39 0
BBX 39 35 0 -5
BITMAP
00000C0000
00001C0000
00003C0000
00007C0000
0000FC0000
0001FC0000
0003FC0000
0007FC0000
000FFC0000
001FFC0000
7FFFFC07C0
FFFFFC07C0
FFFFFC07C0
FFFFFC07C0
FFFFFC07C0
FFFFFCFFFE
FFFFFCFFFE
FFFFFCFFFE
FFFFFCFFFE
FFFFFC7FFE
FFFFFC07C0
FFFFFC07C0
FFFFFC07C0
FFFFFC07C0
001FFC0000
000FFC0000
0007FC0000
0007FC0000
0003FC0000
0001FC0000
0000FC0000
00007C0000
00003C0000
00001C0000
00000C0000
ENDCHAR
STARTCHAR 0057
ENCODING 87
SWIDTH 968 0
DWIDTH 39 0
BBX 39 37 0 -6
BITMAP
03F8003FC0
0FFE00FFE0
1FFF01FFF0
3FFF83FFF8
7FFFC7FFFC
7FFFCFFFFC
FFFFEFFFFC
FFFFFFFFFE
FFFFFFFFFE
7FFFFFFFFE
7FFFFFFFFE
7FFFFFFFFC
7FFFFFFFFC
3FFFFFFFFC
1FFFFFFFF8
1FFFFFFFF0
0FFFFFFFE0
07FFFFFFE0
03FFFFFFC0
01FFFFFF80
00FFFFFF00
007FFFFE00
003FFFFC00
001FFFF800
000FFFF000
0007FFE000
0003FFC000
0001FF8000
0000FF0000
00007E0000
00007E0000
00003C0000
0000380000
0000180000
0000100000
0000100000
0000100000
ENDCHAR
STARTCHAR 0058
ENCODING 88
SWIDTH 968 0
DWIDTH 39 0
BBX 32 41 4 -8
BITMAP
01E00000
01E00000
01E00000
01E00000
01E00000
01E00000
01E00000
01E00000
01E00000
01E00000
01E00000
01E38000
01E7C000
01E7C200
01E7CF80
01E7CF8E
01E7CF9F
F1E7CF9F
F1FFFFFF
F1FFFFFF
F1FFFFFF
F1FFFFFF
F1FFFFFF
F1FFFFFF
F1FFFFFF
F3FFFFFF
FFFFFFFF
FFFFFFFF
FFFFFFFF
FFFFFFFF
7FFFFFFF
7FFFFFFF
3FFFFFFF
1FFFFFFF
1FFFFFFF
0FFFFFFF
07FFFFFF
07FFFFFE
03FFFFFE
01FFFFFE
00FFFFF8
ENDCHAR
STARTCHAR 0059
ENCODING 89
SWIDTH 968 0
DWIDTH 39 0
BBX 29 41 5 -8
BITMAP
00070000
00070000
00070000
00070000
03C71E00
03C71E00
03C71E00
03C71E00
03C71E30
03C71E78
03C71E78
03C71E78
03C71E78
03C71E78
03C71E78
03C71E78
03C71E78
03C71E78
03C71E78
E3C71E78
F3EFBFF8
F3FFFFF8
F3FFFFF8
F3FFFFF8
F3FFFFF8
F3FFFFF8
F3FFFFF8
FFFFFFF8
FFFFFFF8
FFFFFFF8
FFFFFFF8
7FFFFFF8
3FFFFFF8
3FFFFFF8
1FFFFFF8
0FFFFFF8
0FFFFFF8
07FFFFF8
03FFFFF8
03FFFFF0
00FFFFC0
ENDCHAR
STARTCHAR 005A
ENCODING 90
SWIDTH 968 0
DWIDTH 39 0
BBX 39 39 0 -7
BITMAP
00000001C0
00000601C0
00000E00E0
00001E00E0
00001E00F0
00003E0070
00007E1878
0000FE1C78
0001FE1C38
0003FE1C3C
0007FE1E3C
000FFE0E3C
7FFFFE0E3C
FFFFFE0F1C
FFFFFE0F1E
FFFFFE0F1E
FFFFFE0F1E
FFFFFE0F1E
FFFFFE0F1E
FFFFFE0F1E
FFFFFE0F1E
FFFFFE0F1E
FFFFFE0F1E
FFFFFE0F1E
FFFFFE0F1C
FFFFFE0E3C
FFFFFE0E3C
7FFFFE1E3C
000FFE1E3C
0007FE1C38
0003FE1C78
0001FE3878
0000FE1870
00007E0070
00003E00F0
00003E00E0
00001E01E0
00000E01C0
0000060080
ENDCHAR
STARTCHAR 005B
ENCODING 91
SWIDTH 968 0
DWIDTH 39 0
BBX 37 38 1 -6
BITMAP
8000000000
C000000000
F000000000
FC00000000
FF00000000
FFC0000000
FFF0000000
FFFC000000
FFFF000000
FFFFC00000
FFFFF00000
FFFFFC0000
FFFFFF0000
FFFFFFC000
FFFFFFF000
FFFFFFFC00
FFFFFFFF00
FFFFFFFFC0
FFFFFFFFF0
FFFFFFFFF8
FFFFFFFFE0
FFFFFFFF80
FFFFFFFE00
FFFFFFF800
FFFFFFE000
FFFFFF8000
FFFFFE0000
FFFFF80000
FFFFE00000
FFFF800000
FFFE000000
FFF8000000
FFE0000000
FF80000000
FE00000000
F800000000
E000000000
8000000000
ENDCHAR
STARTCHAR 005C
ENCODING 92
SWIDTH 968 0
DWIDTH 39 0
BBX 39 38 0 -6
BITMAP
FFFFFFFFFE
7FFFFFFFFC
7FFFFFFFF8
3FFFFFFFF8
3FFFFFFFF0
1FFFFFFFF0
1FFFFFFFE0
0FFFFFFFE0
0FFFFFFFC0
07FFFFFFC0
03FFFFFF80
03FFFFFF80
01FFFFFF00
01FFFFFF00
00FFFFFE00
00FFFFFE00
007FFFFC00
007FFFFC00
003FFFF800
003FFFF800
001FFFF800
001FFFF000
000FFFF000
000FFFE000
0007FFE000
0007FFC000
0003FFC000
0003FF8000
0001FF8000
0001FF0000
0000FF0000
0000FE0000
00007E0000
00007C0000
00003C0000
0000380000
0000180000
0000100000
ENDCHAR
STARTCHAR 005D
ENCODING 93
SWIDTH 968 0
DWIDTH 39 0
BBX 39 39 0 -7
BITMAP
0000000002
000000000E
000000003E
00000000FE
00000003FE
0000000FFE
0000003FFE
000000FFFE
000003FFFE
00000FFFFE
00003FFFFE
0000FFFFFE
0003FFFFFE
000FFFFFFE
003FFFFFFE
00FFFFFFFE
03FFFFFFFE
0FFFFFFFFE
3FFFFFFFFE
FFFFFFFFFE
1FFFFFFFFE
07FFFFFFFE
01FFFFFFFE
007FFFFFFE
001FFFFFFE
0007FFFFFE
0001FFFFFE
00007FFFFE
00001FFFFE
000007FFFE
000001FFFE
0000007FFE
0000001FFE
00000007FE
00000001FE
000000007E
000000001E
0000000006
0000000002
ENDCHAR
STARTCHAR 005E
ENCODING 94
SWIDTH 968 0
DWIDTH 39 0
BBX 39 14 0 6
BITMAP
0100000100
0200000080
0600000040
0C00000060
1C00000070
3C00000038
7FFFFFFFFC
FFFFFFFFFE
3FFFFFFFFC
1C00000078
0C00000070
0400000060
02000000C0
0200000080
ENDCHAR
STARTCHAR 005F
ENCODING 95
SWIDTH 968 0
DWIDTH 39 0
BBX 15 41 12 -8
BITMAP
0100
0380
07C0
0FE0
1FF0
3BB8
C386
0380
0380
0380
0380
0380
0380
0380
0380
0380
0380
0380
0380
0380
0380
0380
0380
0380
0380
0380
0380
0380
0380
0380
0380
0380
0380
8382
638C
3FF8
1FF0
0FE0
07C0
0380
0100
ENDCHAR
STARTCHAR 0060
ENCODING 96
SWIDTH 968 0
DWIDTH 39 0
BBX 15 41 12 -8
BITMAP
0380
0380
0380
0380
0380
0380
0380
0380
0380
0380
0380
0380
0380
0380
0380
0380
0380
0380
0380
0380
0380
0380
0380
0380
0380
0380
0380
0380
0380
0380
0380
0380
0380
8382
638C
3FF8
1FF0
0FE0
07C0
0380
0100
ENDCHAR
STARTCHAR 0061
ENCODING 97
SWIDTH 968 0
DWIDTH 39 0
BBX 39 22 0 2
BITMAP
0000000080
0000000080
0007F001C0
001FFE01C0
007FFFC3C0
00FFFFE3C0
01FFFFFFE0
03FFFFFFE0
07FFFFFFE0
0FFFFFFFF0
0FFFFFFFF0
1F803FFFF0
3E000FFFF0
380003FFF8
600003FFF8
400007FFF8
800007FFF8
00000FFFFC
00001FFFFC
00003FFFFC
00007FFFFC
0000FFFFFE
ENDCHAR
STARTCHAR 0062
ENCODING 98
SWIDTH 968 0
DWIDTH 39 0
BBX 38 22 1 2
BITMAP
0400000000
0400000000
06000E0000
0E01FFE000
0F07FFF000
0F1FFFFC00
0FFFFFFE00
1FFFFFFF00
1FFFFFFF80
1FFFFFFF80
1FFFFFFFC0
3FFFF007E0
3FFFC001E0
3FFF000070
3FFF000030
7FFF800008
7FFF800008
7FFFC00004
FFFFE00000
FFFFF00000
FFFFF80000
FFFFFC0000
ENDCHAR
STARTCHAR 0063
ENCODING 99
SWIDTH 968 0
DWIDTH 39 0
BBX 39 41 0 -7
BITMAP
0000FE0000
0001FF0000
0001FF0000
0001FF0000
0001FF0000
0001FF0000
0001FF0000
0001FF0000
0001FF0000
0001FF0000
0001FF0000
0001FF0000
0001FF0000
0001FF0000
0001FF0000
0001FF0000
0001FF0000
0001FF0000
0001FF0000
7C01FF007C
7F01FF01FC
FFC1FF07FC
FFF1FF1FFE
7FFDFF7FFC
7FFFFFFFFC
3FFFFFFFF8
1FFFFFFFF0
0FFFFFFFE0
07FFFFFFC0
03FFFFFF80
01FFFFFF00
00FFFFFE00
007FFFFC00
003FFFF800
001FFFF000
000FFFE000
0007FFC000
0003FF8000
0001FF0000
0000FE0000
00007C0000
ENDCHAR
STARTCHAR 0064
ENCODING 100
SWIDTH 968 0
DWIDTH 39 0
BBX 37 39 1 -6
BITMAP
0000000300
0000000F80
0000001FC0
0000003FE0
3800007FF0
7C0000FFF8
FE0001FFF8
FF0003FFF8
FF0007FFF8
FF000FFFF0
FF801FFFE0
FF803FFFC0
FF807FFF80
FFC0FFFF00
FFC1FFFE00
FFC3FFFC00
FFE7FFF800
FFEFFFF000
FFFFFFE000
FFFFFFC000
FFFFFF8000
FFFFFF0000
FFFFFE0000
FFFFFC0000
FFFFF80000
FFFFF00000
FFFFE00000
FFFFF80000
FFFFFF0000
FFFFFFE000
FFFFFFFC00
FFFFFFFF00
FFFFFFFF80
FFFFFFFFC0
FFFFFFFFC0
FFFFFFFFC0
FFFFFFFF80
7FFFFFFF80
3FFFFFFE00
ENDCHAR
STARTCHAR 0065
ENCODING 101
SWIDTH 968 0
DWIDTH 39 0
BBX 37 39 1 -6
BITMAP
0600000000
0F80000000
1FC0000000
3FE0000000
7FF00000E0
FFF80001F0
FFFC0003F8
FFFE0007F8
FFFF0007F8
7FFF8007F8
3FFFC00FF8
1FFFE00FF8
0FFFF00FF8
07FFF81FF8
03FFFC1FF8
01FFFE1FF8
00FFFF3FF8
007FFFBFF8
003FFFBFF8
001FFFFFF8
000FFFFFF8
0007FFFFF8
0003FFFFF8
0001FFFFF8
0000FFFFF8
00007FFFF8
00003FFFF8
0000FFFFF8
0007FFFFF8
003FFFFFF8
01FFFFFFF8
07FFFFFFF8
0FFFFFFFF8
1FFFFFFFF8
1FFFFFFFF8
1FFFFFFFF8
0FFFFFFFF8
0FFFFFFFF0
07FFFFFFE0
ENDCHAR
STARTCHAR 0066
ENCODING 102
SWIDTH 968 0
DWIDTH 39 0
BBX 39 36 0 -5
BITMAP
0000700000
0001F80000
0003F80000
0007F80000
000FF80000
001FF80000
003FF00000
007FF00000
00FFE00000
01FFE00000
03FFC00000
07FFC00000
0FFF800000
1FFF800000
3FFFFFFFFC
7FFFFFFFFC
7FFFFFFFFE
FFFFFFFFFE
FFFFFFFFFE
FFFFFFFFFE
7FFFFFFFFE
3FFFFFFFFC
1FFFFFFFFC
0FFF800000
07FFC00000
03FFC00000
01FFE00000
00FFE00000
007FF00000
003FF00000
001FF00000
000FF80000
0007F80000
0003F80000
0001F80000
0000F00000
ENDCHAR
STARTCHAR 0067
ENCODING 103
SWIDTH 968 0
DWIDTH 39 0
BBX 39 36 0 -5
BITMAP
0000080000
00003F0000
00003F8000
00003FC000
00003FE000
00003FF000
00001FF800
00001FFC00
00000FFE00
00000FFF00
000007FF80
000007FFC0
000003FFE0
000003FFF0
3FFFFFFFF8
7FFFFFFFFC
FFFFFFFFFC
FFFFFFFFFE
FFFFFFFFFE
FFFFFFFFFE
FFFFFFFFFC
7FFFFFFFF8
7FFFFFFFF0
000003FFE0
000003FFC0
000007FF80
000007FF00
00000FFE00
00000FFC00
00001FF800
00001FF000
00003FE000
00003FC000
00003F8000
00003F0000
00001E0000
ENDCHAR
STARTCHAR 0068
ENCODING 104
SWIDTH 968 0
DWIDTH 39 0
BBX 39 41 0 -8
BITMAP
00007C0000
0000FE0000
0001FF0000
0003FF8000
0007FFC000
000FFFE000
001FFFF000
003FFFF800
007FFFFC00
00FFFFFE00
01FFFFFF00
03FFFFFF80
07FFFFFFC0
0FFFFFFFE0
1FFFFFFFF0
3FFFFFFFF8
7FFFFFFFFC
7FFFFFFFFC
FFF1FF9FFE
7FC1FF87FE
7F01FF81FC
7C01FF807C
0001FF8000
0001FF8000
0001FF8000
0001FF8000
0001FF8000
0001FF8000
0001FF8000
0001FF8000
0001FF8000
0001FF8000
0001FF8000
0001FF8000
0001FF8000
0001FF8000
0001FF8000
0001FF8000
0001FF8000
0000FF0000
00007E0000
ENDCHAR
STARTCHAR 0069
ENCODING 105
SWIDTH 968 0
DWIDTH 39 0
BBX 39 39 0 -7
BITMAP
1FFFFFFF80
7FFFFFFFC0
7FFFFFFFE0
FFFFFFFFE0
FFFFFFFFE0
FFFFFFFFE0
FFFFFFFFC0
FFFFFFFF80
FFFFFFFE00
FFFFFFF000
FFFFFF8000
FFFFFC0000
FFFFF00000
FFFFF80000
FFFFFC0000
FFFFFE0000
FFFFFF0000
FFFFFF8000
FFFFFFC000
FFFFFFE000
FFF7FFF000
FFF3FFF800
FFF1FFFC00
FFE0FFFE00
FFE07FFF00
FFE03FFF80
FFC01FFFC0
FFC00FFFE0
FFC007FFF0
FF8003FFF8
FF8001FFFC
FF0000FFFE
7F00007FFE
3E00003FFC
1C00001FFC
0000000FF8
00000007F0
00000003E0
0000000180
ENDCHAR
STARTCHAR 006A
ENCODING 106
SWIDTH 968 0
DWIDTH 39 0
BBX 39 39 0 -7
BITMAP
03FFFFFFF8
07FFFFFFFC
0FFFFFFFFC
0FFFFFFFFE
0FFFFFFFFE
0FFFFFFFFE
07FFFFFFFE
03FFFFFFFE
007FFFFFFE
001FFFFFFE
0003FFFFFE
00007FFFFE
00001FFFFE
00003FFFFE
00007FFFFE
0000FFFFFE
0001FFFFFE
0003FFFFFE
0007FFFFFE
000FFFFFFE
001FFFDFFE
003FFF9FFE
007FFF1FFE
00FFFE0FFE
01FFFC0FFE
03FFF80FFE
07FFF007FE
0FFFE007FE
1FFFC007FE
3FFF8003FE
7FFF0003FE
FFFE0001FE
FFFC0001FC
7FF80000F8
7FF0000070
3FE0000000
1FC0000000
0F80000000
0300000000
ENDCHAR
STARTCHAR 006B
ENCODING 107
SWIDTH 968 0
DWIDTH 39 0
BBX 39 33 0 -4
BITMAP
0000020000
0000030000
0000038000
000003C000
000003E000
000003F000
000003F800
000003FC00
0007FFFE00
007FFFFF00
01FFFFFF80
03FFFFFFC0
07FFFFFFE0
0FFFFFFFF0
1FFFFFFFF8
1FFFFFFFFC
3FFFFFFFFE
3FFFFFFFF8
7FF00FFFF0
7FC01FFFC0
7F001FFF00
7E001FFC00
7C001FF800
F8001FE000
F8001F8000
F0003F0000
E0003C0000
E000300000
C000200000
C000000000
C000000000
8000000000
8000000000
ENDCHAR
STARTCHAR 006C
ENCODING 108
SWIDTH 1067 0
DWIDTH 43 0
BBX 43 37 0 -6
BITMAP
000020000000
000020000000
000060000000
0000E0000000
0001E0000000
0003E0000000
0007E0000000
000FE0000000
001FE0000000
003FFFF00000
007FFFFF0000
00FFFFFFC000
01FFFFFFF000
03FFFFFFF800
07FFFFFFFC00
0FFFFFFFFE00
1FFFFFFFFF00
3FFFFFFFFF00
FFFFFFFFFF80
3FFFFFFFFF80
1FFFF80FFF80
07FFFC01FFC0
01FFFC007FC0
00FFFC001FC0
003FFC000FC0
000FFC0007C0
0003FC0007E0
0001FE0003E0
00007E0001E0
00001E0001E0
0000060000E0
0000020000E0
000000000060
000000000060
000000000040
000000000020
000000000020
ENDCHAR
STARTCHAR 006D
ENCODING 109
SWIDTH 968 0
DWIDTH 39 0
BBX 35 41 2 -8
BITMAP
003FFF0000
003FFF0000
003FFF0000
003FFF0000
003FFF0000
003FFF0000
003FFF0000
003FFF0000
003FFF0000
003FFF0000
003FFF0000
003FFF0000
003FFF0000
003FFF0000
003FFF0000
003FFF0000
003FFF0000
003FFF0000
003FFF0000
003FFF0000
003FFF0000
003FFF0000
FFFFFFFFE0
7FFFFFFFC0
3FFFFFFF80
1FFFFFFF00
0FFFFFFE00
07FFFFFC00
03FFFFF800
01FFFFF000
00FFFFE000
007FFFC000
003FFF8000
001FFF0000
000FFE0000
0007FE0000
0007FC0000
0003F80000
0001F00000
0000E00000
0000400000
ENDCHAR
STARTCHAR 006E
ENCODING 110
SWIDTH 968 0
DWIDTH 39 0
BBX 39 32 0 -3
BITMAP
0000400000
0000C00000
0001C00000
0003C00000
0007C00000
000FC00000
001FC00000
003FC00000
007FC00000
00FFC00000
03FFFFFFFE
07FFFFFFFE
0FFFFFFFFE
1FFFFFFFFE
3FFFFFFFFE
7FFFFFFFFE
FFFFFFFFFE
3FFFFFFFFE
1FFFFFFFFE
0FFFFFFFFE
07FFFFFFFE
03FFFFFFFE
01FFC00000
00FFC00000
007FC00000
003FC00000
001FC00000
000FC00000
0003C00000
0001C00000
0000C00000
0000400000
ENDCHAR
STARTCHAR 006F
ENCODING 111
SWIDTH 968 0
DWIDTH 39 0
BBX 39 32 0 -3
BITMAP
0000040000
0000060000
0000070000
0000078000
000007C000
000007E000
000007F000
000007F800
000007FC00
000007FE00
FFFFFFFF00
FFFFFFFFC0
FFFFFFFFE0
FFFFFFFFF0
FFFFFFFFF8
FFFFFFFFFC
FFFFFFFFFE
FFFFFFFFF8
FFFFFFFFF0
FFFFFFFFE0
FFFFFFFFC0
FFFFFFFF80
000007FF00
000007FE00
000007FC00
000007F800
000007F000
000007E000
0000078000
0000070000
0000060000
0000040000
ENDCHAR
STARTCHAR 0070
ENCODING 112
SWIDTH 968 0
DWIDTH 39 0
BBX 34 41 3 -8
BITMAP
0000800000
0001C00000
0003E00000
0007F00000
000FF80000
001FFC0000
003FFE0000
003FFF0000
007FFF8000
00FFFF8000
01FFFFC000
03FFFFE000
07FFFFF000
0FFFFFF800
1FFFFFFC00
3FFFFFFE00
7FFFFFFF00
FFFFFFFF80
007FFE0040
007FFE0000
007FFE0000
007FFE0000
007FFE0000
007FFE0000
007FFE0000
007FFE0000
007FFE0000
007FFE0000
007FFE0000
007FFE0000
007FFE0000
007FFE0000
007FFE0000
007FFE0000
007FFE0000
007FFE0000
007FFE0000
007FFE0000
007FFE0000
007FFE0000
007FFE0000
ENDCHAR
STARTCHAR 0071
ENCODING 113
SWIDTH 968 0
DWIDTH 39 0
BBX 35 41 2 -8
BITMAP
0000008000
0000018000
000001C000
000003C000
000007E000
000007E000
00000FF000
00000FF000
00001FF800
00003FFC00
00003FFC00
FE007FFE00
FE007FFE00
FE00FFFF00
FE00FFFF80
FE01FFFF80
FE03FFFFC0
FE03FFFFC0
FE07FFFFE0
FE0007E000
FE0007E000
FE0007E000
FE0007E000
FE0007E000
FE0007E000
FE0007E000
FE0007E000
FE0007E000
FE0007E000
FE000FE000
FE000FE000
7F001FC000
7F803FC000
3FC07FC000
3FFFFF8000
1FFFFF0000
0FFFFF0000
07FFFE0000
03FFF80000
00FFE00000
001F800000
ENDCHAR
STARTCHAR 0072
ENCODING 114
SWIDTH 968 0
DWIDTH 39 0
BBX 39 33 0 -4
BITMAP
0000400000
0001C00000
0003C00000
000FC00000
003FC00000
00FFC00000
01FFC00000
07FFFFF000
1FFFFFFE00
3FFFFFFF80
FFFFFFFFC0
3FFFFFFFE0
0FFFFFFFF0
03FFC01FF8
00FFC003FC
007FC001FC
001FC000FC
0007C000FE
0001C000FE
0000C0007E
000020007E
00000000FE
00000000FC
00000000FC
00000001FC
00000003F8
0000001FF8
001FFFFFF0
001FFFFFE0
001FFFFFC0
001FFFFF80
001FFFFF00
001FFFF800
ENDCHAR
STARTCHAR 0073
ENCODING 115
SWIDTH 968 0
DWIDTH 39 0
BBX 39 31 0 -3
BITMAP
0000780000
000FFFE000
007FFFFC00
01FFFFFF00
07FFFFFFC0
0FFFFFFFE0
1FFFFFFFF0
3FFFFFFFF8
3FFFFFFFF8
7FFFFFFFFC
7FFFFFFFFC
FFFFFFFFFE
FFFFFFFFFE
FFFFFFFFFE
FFFFFFFFFE
7FFFFFFFFC
7FFFFFFFFC
7FFFFFFFFC
3FFFFFFFF8
1FFFFFFFF0
1FFFFFFFE0
07FFFFFFC0
03FFFFFF80
00FFFFFE00
003FFFF800
0007FF8000
0003E00000
0003C00000
0007800000
000E000000
0030000000
ENDCHAR
STARTCHAR 0074
ENCODING 116
SWIDTH 968 0
DWIDTH 39 0
BBX 39 33 0 -4
BITMAP
7FFFFFFFFC
7FFFFFFFFC
FFFFFFFFFE
FFFFFFFFFE
FFFFFFFFFE
FFFFFFFFFE
FFFFFFFFFE
FFFFFFFFFE
FFFFFFFFFE
FFFFFFFFFE
FFFFFFFFFE
FFFFFFFFFE
FFFFFFFFFE
FFFFFFFFFE
FFFFFFFFFE
FFFFFFFFFE
FFFFFFFFFE
FFFFFFFFFE
FFFFFFFFFE
FFFFFFFFFE
FFFFFFFFFE
FFFFFFFFFE
FFFFFFFFFE
FFFFFFFFFE
7FFFFFFFFC
0000FC0000
0000F00000
0001E00000
0001C00000
0001800000
0003000000
0002000000
0004000000
ENDCHAR
STARTCHAR 0075
ENCODING 117
SWIDTH 968 0
DWIDTH 39 0
BBX 39 30 0 -2
BITMAP
0001FE0000
001FFFF000
00FFFFFC00
01FFFFFF00
07FFFFFFC0
0FFFFFFFE0
1FFFFFFFF0
3FFFFFFFF8
7FFFFFFFF8
7FFFFFFFFC
FFFFFFFFFC
FFFFFFFFFE
FFFFFFFFFE
FFFFFFFFFE
FFFFFFFFFE
FFFFFFFFFC
7FFFFFFFFC
7FFFFFFFFC
3FFFFFFFF8
1FFFFFFFF0
0FFFFFFFE0
07FFFFFFC0
03FFFFFF80
00FFFFFE00
001FFFF800
0001FFC000
00000F8000
0000078000
000003C000
000000F800
ENDCHAR
STARTCHAR 0076
ENCODING 118
SWIDTH 968 0
DWIDTH 39 0
BBX 39 33 0 -4
BITMAP
3FFFFFFFF8
7FFFFFFFFC
FFFFFFFFFE
FFFFFFFFFE
FFFFFFFFFE
FFFFFFFFFE
FFFFFFFFFE
FFFFFFFFFE
FFFFFFFFFE
FFFFFFFFFE
FFFFFFFFFE
FFFFFFFFFE
FFFFFFFFFE
FFFFFFFFFE
FFFFFFFFFE
FFFFFFFFFE
FFFFFFFFFE
FFFFFFFFFE
FFFFFFFFFE
FFFFFFFFFE
FFFFFFFFFE
FFFFFFFFFE
FFFFFFFFFE
FFFFFFFFFE
7FFFFFFFFC
00007E0000
00001E0000
00000E0000
0000070000
0000030000
0000018000
0000008000
0000004000
ENDCHAR
STARTCHAR 0077
ENCODING 119
SWIDTH 968 0
DWIDTH 39 0
BBX 39 39 0 -7
BITMAP
0000380000
00007C0000
0000FE0000
0000FE0000
0000FE0000
03E1FE0F80
07F7FF9FC0
07FFFFFFC0
07FFFFFFC0
07FFFFFFC0
07FFFFFFC0
03FFFFFF80
01FFFFFF00
03FFC7FE00
03FF01FF00
07FE00FF00
3FFC007FF8
7FFC007FFC
FFF8003FFE
FFF8003FFE
FFF8003FFE
7FFC007FFC
3FFC007FF8
03FE00FE00
03FF01FE00
01FFEFFE00
01FFFFFF00
03FFFFFF80
07FFFFFFC0
07FFFFFFC0
07FFFFFFC0
07FBFE3FC0
03F0FE1F80
01E0FE0700
0000FE0000
0000FE0000
0000FE0000
00007C0000
0000100000
ENDCHAR
STARTCHAR 0078
ENCODING 120
SWIDTH 968 0
DWIDTH 39 0
BBX 39 32 0 -3
BITMAP
0060000000
1CE0000000
1FE0000000
0FFE000000
0FFE000000
FE7E000000
FC3C030000
781C078300
1C3E0FC780
3C3F0FCFC0
7FFE07FFC0
7FF89FFF80
27FBFFFF80
07BBFFFF80
0733FFFFBC
0203FF0FFC
0000FE07FE
0000FC03FE
0000FC03FC
0001F803E0
0007FC03C0
0007FC07E0
0007FE07F0
0007FF9FF8
0001FFFFFC
00003FFFF8
00001FFE78
00003FFE00
00003E7E00
00003E3E00
00001C3E00
0000001C00
ENDCHAR
STARTCHAR 0079
ENCODING 121
SWIDTH 968 0
DWIDTH 39 0
BBX 39 34 0 -4
BITMAP
0007C00000
001FF80780
007FFC1FF0
00FFFF1FF8
01FF003F00
01FE003F00
03FE003F9C
07FF007FFC
07FF807FF8
1FFFC07FF0
7F1FE0FFE0
FF07F1FF80
7F03FBFF80
3E01FFFF80
1E007FF800
04003FE000
00003FC000
00007FC000
0000FFE000
0003FFF000
0007FFF800
000FF1FC00
001FE0FE00
007FC07F00
00FF803F80
01FF003FC0
03FE001FE0
07FC000FF0
1FF80007F8
1FF00003FE
1FE00001FC
1FC00000F8
0F80000070
0600000060
ENDCHAR
STARTCHAR 007A
ENCODING 122
SWIDTH 968 0
DWIDTH 39 0
BBX 39 38 0 -7
BITMAP
0000010000
0000030000
0000020000
0000060000
00000E0000
00001E0000
00003E0000
00003C0000
00003C0000
00007C0000
00007C0000
0000780000
0000780000
0000F80000
0000F80002
0000F8001C
0000F001F8
07E1F03FF0
1FF9F3FFE0
3FFDFFFFC0
7E7FFFFF80
783FFFF800
F83FFF8000
F87FF80000
FFFBE00000
7FFBF00000
3FF7F80000
1FCFF80000
001FFC0000
001F3C0000
001E3C0000
003E3C0000
003E3C0000
001E780000
001FF80000
001FF00000
000FF00000
0007C00000
ENDCHAR
STARTCHAR 007B
ENCODING 123
SWIDTH 968 0
DWIDTH 39 0
BBX 39 36 0 -5
BITMAP
0000003F80
0000003E00
0000003F00
0000001F80
0000001FC0
00000013E0
00000011E0
00000000F0
0000000078
0000000078
000000003C
000000003C
000000001C
000000001C
000000001E
000000001E
000000001E
F00000001E
F00000001E
F00000001E
700000001C
700000001C
780000003C
780000003C
3800000078
3C00000078
1E000000F0
1F000001F0
0F000003E0
07C00007C0
03E0000F80
01F8003F00
00FF01FE00
007FFFFC00
001FFFF000
0003FF8000
ENDCHAR
STARTCHAR 007C
ENCODING 124
SWIDTH 968 0
DWIDTH 39 0
BBX 39 36 0 -5
BITMAP
03F8000000
00F8000000
01F8000000
03F0000000
07F0000000
0F90000000
0F10000000
1E00000000
3C00000000
3C00000000
7800000000
7800000000
7000000000
7000000000
F000000000
F000000000
F000000000
F00000001E
F00000001E
F00000001E
700000001C
700000001C
780000003C
780000003C
3800000038
3C00000078
1E000000F0
1E000000F0
0F000001E0
07C00003C0
07E0000F80
03F8003F00
00FE00FE00
007FFFFC00
001FFFF000
0007FFC000
ENDCHAR
STARTCHAR 007D
ENCODING 125
SWIDTH 496 0
DWIDTH 20 0
BBX 0 0 0 0
BITMAP
ENDCHAR
STARTCHAR 007E
ENCODING 126
SWIDTH 496 0
DWIDTH 20 0
BBX 0 0 0 0
BITMAP
ENDCHAR
STARTCHAR 00A0
ENCODING 160
SWIDTH 248 0
DWIDTH 10 0
BBX 0 0 0 0
BITMAP
ENDCHAR
STARTCHAR 00A1
ENCODING 161
SWIDTH 322 0
DWIDTH 13 0
BBX 0 0 0 0
BITMAP
ENDCHAR
STARTCHAR 00A2
ENCODING 162
SWIDTH 546 0
DWIDTH 22 0
BBX 0 0 0 0
BITMAP
ENDCHAR
STARTCHAR 00A3
ENCODING 163
SWIDTH 496 0
DWIDTH 20 0
BBX 0 0 0 0
BITMAP
ENDCHAR
STARTCHAR 00A4
ENCODING 164
SWIDTH 496 0
DWIDTH 20 0
BBX 0 0 0 0
BITMAP
ENDCHAR
STARTCHAR 00A5
ENCODING 165
SWIDTH 620 0
DWIDTH 25 0
BBX 0 0 0 0
BITMAP
ENDCHAR
STARTCHAR 00A6
ENCODING 166
SWIDTH 496 0
DWIDTH 20 0
BBX 0 0 0 0
BITMAP
ENDCHAR
STARTCHAR 00A7
ENCODING 167
SWIDTH 496 0
DWIDTH 20 0
BBX 0 0 0 0
BITMAP
ENDCHAR
STARTCHAR 00A8
ENCODING 168
SWIDTH 496 0
DWIDTH 20 0
BBX 0 0 0 0
BITMAP
ENDCHAR
STARTCHAR 00A9
ENCODING 169
SWIDTH 819 0
DWIDTH 33 0
BBX 0 0 0 0
BITMAP
ENDCHAR
STARTCHAR 00AA
ENCODING 170
SWIDTH 322 0
DWIDTH 13 0
BBX 0 0 0 0
BITMAP
ENDCHAR
STARTCHAR 00AB
ENCODING 171
SWIDTH 446 0
DWIDTH 18 0
BBX 0 0 0 0
BITMAP
ENDCHAR
STARTCHAR 00AC
ENCODING 172
SWIDTH 496 0
DWIDTH 20 0
BBX 0 0 0 0
BITMAP
ENDCHAR
STARTCHAR 00AD
ENCODING 173
SWIDTH 968 0
DWIDTH 39 0
BBX 39 39 0 -7
BITMAP
0001FF0000
000FFFE000
003FFFF800
00FC007E00
01F0000F00
03C0000780
07800003C0
0F800041E0
0FC00060E0
1CE000E070
387001E038
383803E038
301C07E01C
700E0FE01C
600FFFE00C
600FFFE00C
E00FFFE00E
E00FFFE00E
E00FFFE00E
E00FFFE00E
E00FFFE00E
E00FFFE00E
600FFFE00C
600FFFE00C
70000FE01C
70000FE01C
300007E018
380003E838
1C0001EC70
1C0000E670
0E000063E0
07000001C0
0380000380
01E0000F00
00F8001E00
007E00FC00
001FFFF000
0007FFC000
0000100000
ENDCHAR
STARTCHAR 00AE
ENCODING 174
SWIDTH 819 0
DWIDTH 33 0
BBX 0 0 0 0
BITMAP
ENDCHAR
STARTCHAR 00AF
ENCODING 175
SWIDTH 322 0
DWIDTH 13 0
BBX 0 0 0 0
BITMAP
ENDCHAR
STARTCHAR 00B0
ENCODING 176
SWIDTH 322 0
DWIDTH 13 0
BBX 0 0 0 0
BITMAP
ENDCHAR
STARTCHAR 00B1
ENCODING 177
SWIDTH 496 0
DWIDTH 20 0
BBX 0 0 0 0
BITMAP
ENDCHAR
STARTCHAR 00B2
ENCODING 178
SWIDTH 496 0
DWIDTH 20 0
BBX 0 0 0 0
BITMAP
ENDCHAR
STARTCHAR 00B3
ENCODING 179
SWIDTH 496 0
DWIDTH 20 0
BBX 0 0 0 0
BITMAP
ENDCHAR
STARTCHAR 00B4
ENCODING 180
SWIDTH 496 0
DWIDTH 20 0
BBX 0 0 0 0
BITMAP
ENDCHAR
STARTCHAR 00B5
ENCODING 181
SWIDTH 571 0
DWIDTH 23 0
BBX 0 0 0 0
BITMAP
ENDCHAR
STARTCHAR 00B6
ENCODING 182
SWIDTH 496 0
DWIDTH 20 0
BBX 0 0 0 0
BITMAP
ENDCHAR
STARTCHAR 00B7
ENCODING 183
SWIDTH 248 0
DWIDTH 10 0
BBX 0 0 0 0
BITMAP
ENDCHAR
STARTCHAR 00B8
ENCODING 184
SWIDTH 496 0
DWIDTH 20 0
BBX 0 0 0 0
BITMAP
ENDCHAR
STARTCHAR 00B9
ENCODING 185
SWIDTH 496 0
DWIDTH 20 0
BBX 0 0 0 0
BITMAP
ENDCHAR
STARTCHAR 00BA
ENCODING 186
SWIDTH 347 0
DWIDTH 14 0
BBX 0 0 0 0
BITMAP
ENDCHAR
STARTCHAR 00BB
ENCODING 187
SWIDTH 446 0
DWIDTH 18 0
BBX 0 0 0 0
BITMAP
ENDCHAR
STARTCHAR 00BC
ENCODING 188
SWIDTH 819 0
DWIDTH 33 0
BBX 0 0 0 0
BITMAP
ENDCHAR
STARTCHAR 00BD
ENCODING 189
SWIDTH 943 0
DWIDTH 38 0
BBX 0 0 0 0
BITMAP
ENDCHAR
STARTCHAR 00BE
ENCODING 190
SWIDTH 819 0
DWIDTH 33 0
BBX 0 0 0 0
BITMAP
ENDCHAR
STARTCHAR 00BF
ENCODING 191
SWIDTH 372 0
DWIDTH 15 0
BBX 0 0 0 0
BITMAP
ENDCHAR
STARTCHAR 00C0
ENCODING 192
SWIDTH 744 0
DWIDTH 30 0
BBX 0 0 0 0
BITMAP
ENDCHAR
STARTCHAR 00C1
ENCODING 193
SWIDTH 744 0
DWIDTH 30 0
BBX 0 0 0 0
BITMAP
ENDCHAR
STARTCHAR 00C2
ENCODING 194
SWIDTH 744 0
DWIDTH 30 0
BBX 0 0 0 0
BITMAP
ENDCHAR
STARTCHAR 00C3
ENCODING 195
SWIDTH 744 0
DWIDTH 30 0
BBX 0 0 0 0
BITMAP
ENDCHAR
STARTCHAR 00C4
ENCODING 196
SWIDTH 744 0
DWIDTH 30 0
BBX 0 0 0 0
BITMAP
ENDCHAR
STARTCHAR 00C5
ENCODING 197
SWIDTH 744 0
DWIDTH 30 0
BBX 0 0 0 0
BITMAP
ENDCHAR
STARTCHAR 00C6
ENCODING 198
SWIDTH 1017 0
DWIDTH 41 0
BBX 0 0 0 0
BITMAP
ENDCHAR
STARTCHAR 00C7
ENCODING 199
SWIDTH 670 0
DWIDTH 27 0
BBX 0 0 0 0
BITMAP
ENDCHAR
STARTCHAR 00C8
ENCODING 200
SWIDTH 546 0
DWIDTH 22 0
BBX 0 0 0 0
BITMAP
ENDCHAR
STARTCHAR 00C9
ENCODING 201
SWIDTH 546 0
DWIDTH 22 0
BBX 0 0 0 0
BITMAP
ENDCHAR
STARTCHAR 00CA
ENCODING 202
SWIDTH 546 0
DWIDTH 22 0
BBX 0 0 0 0
BITMAP
ENDCHAR
STARTCHAR 00CB
ENCODING 203
SWIDTH 546 0
DWIDTH 22 0
BBX 0 0 0 0
BITMAP
ENDCHAR
STARTCHAR 00CC
ENCODING 204
SWIDTH 322 0
DWIDTH 13 0
BBX 0 0 0 0
BITMAP
ENDCHAR
STARTCHAR 00CD
ENCODING 205
SWIDTH 322 0
DWIDTH 13 0
BBX 0 0 0 0
BITMAP
ENDCHAR
STARTCHAR 00CE
ENCODING 206
SWIDTH 322 0
DWIDTH 13 0
BBX 0 0 0 0
BITMAP
ENDCHAR
STARTCHAR 00CF
ENCODING 207
SWIDTH 322 0
DWIDTH 13 0
BBX 0 0 0 0
BITMAP
ENDCHAR
STARTCHAR 00D0
ENCODING 208
SWIDTH 744 0
DWIDTH 30 0
BBX 0 0 0 0
BITMAP
ENDCHAR
STARTCHAR 00D1
ENCODING 209
SWIDTH 744 0
DWIDTH 30 0
BBX 0 0 0 0
BITMAP
ENDCHAR
STARTCHAR 00D2
ENCODING 210
SWIDTH 794 0
DWIDTH 32 0
BBX 0 0 0 0
BITMAP
ENDCHAR
STARTCHAR 00D3
ENCODING 211
SWIDTH 794 0
DWIDTH 32 0
BBX 0 0 0 0
BITMAP
ENDCHAR
STARTCHAR 00D4
ENCODING 212
SWIDTH 794 0
DWIDTH 32 0
BBX 0 0 0 0
BITMAP
ENDCHAR
STARTCHAR 00D5
ENCODING 213
SWIDTH 794 0
DWIDTH 32 0
BBX 0 0 0 0
BITMAP
ENDCHAR
STARTCHAR 00D6
ENCODING 214
SWIDTH 794 0
DWIDTH 32 0
BBX 0 0 0 0
BITMAP
ENDCHAR
STARTCHAR 00D7
ENCODING 215
SWIDTH 496 0
DWIDTH 20 0
BBX 0 0 0 0
BITMAP
ENDCHAR
STARTCHAR 00D8
ENCODING 216
SWIDTH 794 0
DWIDTH 32 0
BBX 0 0 0 0
BITMAP
ENDCHAR
STARTCHAR 00D9
ENCODING 217
SWIDTH 720 0
DWIDTH 29 0
BBX 0 0 0 0
BITMAP
ENDCHAR
STARTCHAR 00DA
ENCODING 218
SWIDTH 720 0
DWIDTH 29 0
BBX 0 0 0 0
BITMAP
ENDCHAR
STARTCHAR 00DB
ENCODING 219
SWIDTH 720 0
DWIDTH 29 0
BBX 0 0 0 0
BITMAP
ENDCHAR
STARTCHAR 00DC
ENCODING 220
SWIDTH 720 0
DWIDTH 29 0
BBX 0 0 0 0
BITMAP
ENDCHAR
STARTCHAR 00DD
ENCODING 221
SWIDTH 595 0
DWIDTH 24 0
BBX 0 0 0 0
BITMAP
ENDCHAR
STARTCHAR 00DE
ENCODING 222
SWIDTH 546 0
DWIDTH 22 0
BBX 0 0 0 0
BITMAP
ENDCHAR
STARTCHAR 00DF
ENCODING 223
SWIDTH 595 0
DWIDTH 24 0
BBX 0 0 0 0
BITMAP
ENDCHAR
STARTCHAR 00E0
ENCODING 224
SWIDTH 446 0
DWIDTH 18 0
BBX 0 0 0 0
BITMAP
ENDCHAR
STARTCHAR 00E1
ENCODING 225
SWIDTH 446 0
DWIDTH 18 0
BBX 0 0 0 0
BITMAP
ENDCHAR
STARTCHAR 00E2
ENCODING 226
SWIDTH 446 0
DWIDTH 18 0
BBX 0 0 0 0
BITMAP
ENDCHAR
STARTCHAR 00E3
ENCODING 227
SWIDTH 446 0
DWIDTH 18 0
BBX 0 0 0 0
BITMAP
ENDCHAR
STARTCHAR 00E4
ENCODING 228
SWIDTH 446 0
DWIDTH 18 0
BBX 0 0 0 0
BITMAP
ENDCHAR
STARTCHAR 00E5
ENCODING 229
SWIDTH 446 0
DWIDTH 18 0
BBX 0 0 0 0
BITMAP
ENDCHAR
STARTCHAR 00E6
ENCODING 230
SWIDTH 695 0
DWIDTH 28 0
BBX 0 0 0 0
BITMAP
ENDCHAR
STARTCHAR 00E7
ENCODING 231
SWIDTH 446 0
DWIDTH 18 0
BBX 0 0 0 0
BITMAP
ENDCHAR
STARTCHAR 00E8
ENCODING 232
SWIDTH 446 0
DWIDTH 18 0
BBX 0 0 0 0
BITMAP
ENDCHAR
STARTCHAR 00E9
ENCODING 233
SWIDTH 446 0
DWIDTH 18 0
BBX 0 0 0 0
BITMAP
ENDCHAR
STARTCHAR 00EA
ENCODING 234
SWIDTH 446 0
DWIDTH 18 0
BBX 0 0 0 0
BITMAP
ENDCHAR
STARTCHAR 00EB
ENCODING 235
SWIDTH 446 0
DWIDTH 18 0
BBX 0 0 0 0
BITMAP
ENDCHAR
STARTCHAR 00EC
ENCODING 236
SWIDTH 248 0
DWIDTH 10 0
BBX 0 0 0 0
BITMAP
ENDCHAR
STARTCHAR 00ED
ENCODING 237
SWIDTH 248 0
DWIDTH 10 0
BBX 0 0 0 0
BITMAP
ENDCHAR
STARTCHAR 00EE
ENCODING 238
SWIDTH 248 0
DWIDTH 10 0
BBX 0 0 0 0
BITMAP
ENDCHAR
STARTCHAR 00EF
ENCODING 239
SWIDTH 248 0
DWIDTH 10 0
BBX 0 0 0 0
BITMAP
ENDCHAR
STARTCHAR 00F0
ENCODING 240
SWIDTH 546 0
DWIDTH 22 0
BBX 0 0 0 0
BITMAP
ENDCHAR
STARTCHAR 00F1
ENCODING 241
SWIDTH 546 0
DWIDTH 22 0
BBX 0 0 0 0
BITMAP
ENDCHAR
STARTCHAR 00F2
ENCODING 242
SWIDTH 496 0
DWIDTH 20 0
BBX 0 0 0 0
BITMAP
ENDCHAR
STARTCHAR 00F3
ENCODING 243
SWIDTH 496 0
DWIDTH 20 0
BBX 0 0 0 0
BITMAP
ENDCHAR
STARTCHAR 00F4
ENCODING 244
SWIDTH 496 0
DWIDTH 20 0
BBX 0 0 0 0
BITMAP
ENDCHAR
STARTCHAR 00F5
ENCODING 245
SWIDTH 496 0
DWIDTH 20 0
BBX 0 0 0 0
BITMAP
ENDCHAR
STARTCHAR 00F6
ENCODING 246
SWIDTH 496 0
DWIDTH 20 0
BBX 0 0 0 0
BITMAP
ENDCHAR
STARTCHAR 00F7
ENCODING 247
SWIDTH 496 0
DWIDTH 20 0
BBX 0 0 0 0
BITMAP
ENDCHAR
STARTCHAR 00F8
ENCODING 248
SWIDTH 496 0
DWIDTH 20 0
BBX 0 0 0 0
BITMAP
ENDCHAR
STARTCHAR 00F9
ENCODING 249
SWIDTH 521 0
DWIDTH 21 0
BBX 0 0 0 0
BITMAP
ENDCHAR
STARTCHAR 00FA
ENCODING 250
SWIDTH 521 0
DWIDTH 21 0
BBX 0 0 0 0
BITMAP
ENDCHAR
STARTCHAR 00FB
ENCODING 251
SWIDTH 521 0
DWIDTH 21 0
BBX 0 0 0 0
BITMAP
ENDCHAR
STARTCHAR 00FC
ENCODING 252
SWIDTH 521 0
DWIDTH 21 0
BBX 0 0 0 0
BITMAP
ENDCHAR
STARTCHAR 00FD
ENCODING 253
SWIDTH 422 0
DWIDTH 17 0
BBX 0 0 0 0
BITMAP
ENDCHAR
STARTCHAR 00FE
ENCODING 254
SWIDTH 496 0
DWIDTH 20 0
BBX 0 0 0 0
BITMAP
ENDCHAR
STARTCHAR 00FF
ENCODING 255
SWIDTH 422 0
DWIDTH 17 0
BBX 0 0 0 0
BITMAP
ENDCHAR
STARTCHAR 0131
ENCODING 305
SWIDTH 248 0
DWIDTH 10 0
BBX 0 0 0 0
BITMAP
ENDCHAR
STARTCHAR 02C6
ENCODING 710
SWIDTH 496 0
DWIDTH 20 0
BBX 0 0 0 0
BITMAP
ENDCHAR
STARTCHAR 02C7
ENCODING 711
SWIDTH 496 0
DWIDTH 20 0
BBX 0 0 0 0
BITMAP
ENDCHAR
STARTCHAR 02C9
ENCODING 713
SWIDTH 496 0
DWIDTH 20 0
BBX 0 0 0 0
BITMAP
ENDCHAR
STARTCHAR 02D8
ENCODING 728
SWIDTH 496 0
DWIDTH 20 0
BBX 0 0 0 0
BITMAP
ENDCHAR
STARTCHAR 02D9
ENCODING 729
SWIDTH 496 0
DWIDTH 20 0
BBX 0 0 0 0
BITMAP
ENDCHAR
STARTCHAR 02DA
ENCODING 730
SWIDTH 496 0
DWIDTH 20 0
BBX 0 0 0 0
BITMAP
ENDCHAR
STARTCHAR 02DB
ENCODING 731
SWIDTH 496 0
DWIDTH 20 0
BBX 0 0 0 0
BITMAP
ENDCHAR
STARTCHAR 02DC
ENCODING 732
SWIDTH 496 0
DWIDTH 20 0
BBX 0 0 0 0
BITMAP
ENDCHAR
STARTCHAR 02DD
ENCODING 733
SWIDTH 496 0
DWIDTH 20 0
BBX 0 0 0 0
BITMAP
ENDCHAR
STARTCHAR 037E
ENCODING 894
SWIDTH 968 0
DWIDTH 39 0
BBX 39 39 0 -7
BITMAP
0000380000
0000380000
0000380000
0000380000
0000380000
0000380000
0000380000
0000380000
0000380000
0000380000
0000380000
0000380000
0000380000
0000380000
0000380000
0000380000
0000380000
0000380000
FFFFFFFFFE
FFFFFFFFFE
FFFFFFFFFE
0000380000
0000380000
0000380000
0000380000
0000380000
0000380000
0000380000
0000380000
0000380000
0000380000
0000380000
0000380000
0000380000
0000380000
0000380000
0000380000
0000380000
0000380000
ENDCHAR
STARTCHAR 2013
ENCODING 8211
SWIDTH 546 0
DWIDTH 22 0
BBX 0 0 0 0
BITMAP
ENDCHAR
STARTCHAR 2014
ENCODING 8212
SWIDTH 993 0
DWIDTH 40 0
BBX 0 0 0 0
BITMAP
ENDCHAR
STARTCHAR 2018
ENCODING 8216
SWIDTH 273 0
DWIDTH 11 0
BBX 0 0 0 0
BITMAP
ENDCHAR
STARTCHAR 2019
ENCODING 8217
SWIDTH 273 0
DWIDTH 11 0
BBX 0 0 0 0
BITMAP
ENDCHAR
STARTCHAR 201A
ENCODING 8218
SWIDTH 273 0
DWIDTH 11 0
BBX 0 0 0 0
BITMAP
ENDCHAR
STARTCHAR 201C
ENCODING 8220
SWIDTH 446 0
DWIDTH 18 0
BBX 0 0 0 0
BITMAP
ENDCHAR
STARTCHAR 201D
ENCODING 8221
SWIDTH 446 0
DWIDTH 18 0
BBX 0 0 0 0
BITMAP
ENDCHAR
STARTCHAR 201E
ENCODING 8222
SWIDTH 446 0
DWIDTH 18 0
BBX 0 0 0 0
BITMAP
ENDCHAR
STARTCHAR 2020
ENCODING 8224
SWIDTH 496 0
DWIDTH 20 0
BBX 0 0 0 0
BITMAP
ENDCHAR
STARTCHAR 2021
ENCODING 8225
SWIDTH 496 0
DWIDTH 20 0
BBX 0 0 0 0
BITMAP
ENDCHAR
STARTCHAR 2022
ENCODING 8226
SWIDTH 496 0
DWIDTH 20 0
BBX 0 0 0 0
BITMAP
ENDCHAR
STARTCHAR 2026
ENCODING 8230
SWIDTH 993 0
DWIDTH 40 0
BBX 0 0 0 0
BITMAP
ENDCHAR
STARTCHAR 2039
ENCODING 8249
SWIDTH 297 0
DWIDTH 12 0
BBX 0 0 0 0
BITMAP
ENDCHAR
STARTCHAR 203A
ENCODING 8250
SWIDTH 297 0
DWIDTH 12 0
BBX 0 0 0 0
BITMAP
ENDCHAR
STARTCHAR 2044
ENCODING 8260
SWIDTH 173 0
DWIDTH 7 0
BBX 0 0 0 0
BITMAP
ENDCHAR
STARTCHAR 20A3
ENCODING 8355
SWIDTH 496 0
DWIDTH 20 0
BBX 0 0 0 0
BITMAP
ENDCHAR
STARTCHAR 20A4
ENCODING 8356
SWIDTH 496 0
DWIDTH 20 0
BBX 0 0 0 0
BITMAP
ENDCHAR
STARTCHAR 20A7
ENCODING 8359
SWIDTH 993 0
DWIDTH 40 0
BBX 0 0 0 0
BITMAP
ENDCHAR
STARTCHAR 20AC
ENCODING 8364
SWIDTH 496 0
DWIDTH 20 0
BBX 0 0 0 0
BITMAP
ENDCHAR
STARTCHAR 2116
ENCODING 8470
SWIDTH 1092 0
DWIDTH 44 0
BBX 0 0 0 0
BITMAP
ENDCHAR
STARTCHAR 2122
ENCODING 8482
SWIDTH 720 0
DWIDTH 29 0
BBX 0 0 0 0
BITMAP
ENDCHAR
STARTCHAR 2202
ENCODING 8706
SWIDTH 496 0
DWIDTH 20 0
BBX 0 0 0 0
BITMAP
ENDCHAR
STARTCHAR 2206
ENCODING 8710
SWIDTH 521 0
DWIDTH 21 0
BBX 0 0 0 0
BITMAP
ENDCHAR
STARTCHAR 220F
ENCODING 8719
SWIDTH 744 0
DWIDTH 30 0
BBX 0 0 0 0
BITMAP
ENDCHAR
STARTCHAR 2211
ENCODING 8721
SWIDTH 595 0
DWIDTH 24 0
BBX 0 0 0 0
BITMAP
ENDCHAR
STARTCHAR 2212
ENCODING 8722
SWIDTH 496 0
DWIDTH 20 0
BBX 0 0 0 0
BITMAP
ENDCHAR
STARTCHAR 2215
ENCODING 8725
SWIDTH 173 0
DWIDTH 7 0
BBX 0 0 0 0
BITMAP
ENDCHAR
STARTCHAR 2219
ENCODING 8729
SWIDTH 248 0
DWIDTH 10 0
BBX 0 0 0 0
BITMAP
ENDCHAR
STARTCHAR 221A
ENCODING 8730
SWIDTH 496 0
DWIDTH 20 0
BBX 0 0 0 0
BITMAP
ENDCHAR
STARTCHAR 221E
ENCODING 8734
SWIDTH 496 0
DWIDTH 20 0
BBX 0 0 0 0
BITMAP
ENDCHAR
STARTCHAR 222B
ENCODING 8747
SWIDTH 322 0
DWIDTH 13 0
BBX 0 0 0 0
BITMAP
ENDCHAR
STARTCHAR 2248
ENCODING 8776
SWIDTH 496 0
DWIDTH 20 0
BBX 0 0 0 0
BITMAP
ENDCHAR
STARTCHAR 2264
ENCODING 8804
SWIDTH 496 0
DWIDTH 20 0
BBX 0 0 0 0
BITMAP
ENDCHAR
STARTCHAR 2265
ENCODING 8805
SWIDTH 496 0
DWIDTH 20 0
BBX 0 0 0 0
BITMAP
ENDCHAR
STARTCHAR F001
ENCODING 61441
SWIDTH 521 0
DWIDTH 21 0
BBX 0 0 0 0
BITMAP
ENDCHAR
STARTCHAR F002
ENCODING 61442
SWIDTH 521 0
DWIDTH 21 0
BBX 0 0 0 0
BITMAP
ENDCHAR
STARTCHAR FB01
ENCODING 64257
SWIDTH 521 0
DWIDTH 21 0
BBX 0 0 0 0
BITMAP
ENDCHAR
STARTCHAR FB02
ENCODING 64258
SWIDTH 521 0
DWIDTH 21 0
BBX 0 0 0 0
BITMAP
ENDCHAR
ENDFONT
